<?xml version="1.0" standalone="no"?>
<!DOCTYPE svg PUBLIC "-//W3C//DTD SVG 20010904//EN"
 "http://www.w3.org/TR/2001/REC-SVG-20010904/DTD/svg10.dtd">
<svg version="1.0" xmlns="http://www.w3.org/2000/svg"
 width="400.000000pt" height="400.000000pt" viewBox="0 0 400.000000 400.000000"
 preserveAspectRatio="xMidYMid meet">
<metadata>
Created by potrace 1.14, written by Peter Selinger 2001-2017
</metadata>
<g transform="translate(0.000000,400.000000) scale(0.100000,-0.100000)"
fill="#000000" stroke="none">
<path d="M1865 3574 c-97 -14 -234 -61 -323 -110 -64 -36 -206 -145 -219 -169
-5 -7 -23 -29 -41 -49 -35 -39 -108 -159 -134 -221 -82 -198 -89 -446 -19
-658 79 -236 298 -461 532 -546 135 -49 170 -55 324 -55 193 0 291 24 440 108
94 52 137 86 222 173 123 126 198 273 234 454 24 126 24 212 0 338 -37 189
-114 334 -251 472 -128 129 -244 196 -425 244 -58 16 -278 28 -340 19z m275
-35 c212 -34 399 -147 545 -330 78 -97 117 -175 161 -324 26 -88 26 -333 0
-430 -93 -344 -376 -602 -717 -656 -123 -19 -296 -6 -406 30 -516 171 -752
706 -538 1216 54 129 219 311 347 383 89 50 220 99 298 111 80 12 235 12 310
0z"/>
<path d="M1825 3515 c-117 -21 -268 -88 -360 -159 -42 -32 -117 -110 -156
-161 -13 -16 -29 -36 -37 -44 -17 -18 -68 -119 -92 -183 -35 -95 -50 -186 -50
-298 0 -242 89 -449 267 -621 155 -151 370 -238 588 -239 169 0 303 39 459
133 180 109 328 313 382 527 27 106 25 317 -3 416 -97 335 -365 580 -693 633
-85 14 -217 12 -305 -4z m305 -35 c306 -49 569 -293 656 -610 26 -93 25 -299
0 -399 -37 -141 -141 -313 -245 -406 -19 -16 -46 -41 -60 -54 -36 -32 -213
-116 -291 -137 -99 -27 -320 -25 -418 4 -240 70 -419 222 -527 447 -55 114
-75 208 -75 346 0 264 103 473 326 659 40 33 177 103 244 124 113 35 266 45
390 26z"/>
<path d="M2132 3397 c-18 -49 -15 -64 14 -71 19 -5 24 -11 19 -26 -7 -23 13
-28 21 -6 4 10 15 13 38 9 30 -5 34 -2 39 23 4 16 9 38 12 49 7 22 -22 37 -95
50 -33 6 -36 4 -48 -28z m63 -7 c-3 -5 -12 -7 -20 -3 -21 7 -19 13 6 13 11 0
18 -4 14 -10z m52 -17 c3 -7 -4 -9 -16 -6 -12 3 -18 9 -15 15 7 11 26 6 31 -9z
m-67 -25 c0 -13 -23 -5 -28 10 -2 7 2 10 12 6 9 -3 16 -11 16 -16z m55 -8 c3
-5 -3 -10 -14 -10 -12 0 -21 5 -21 10 0 6 6 10 14 10 8 0 18 -4 21 -10z"/>
<path d="M1742 3404 c2 -11 -8 -21 -30 -28 -41 -14 -30 -28 15 -20 41 8 43 -8
8 -59 -14 -22 -20 -39 -14 -43 12 -7 36 20 50 58 l11 28 26 -19 c38 -26 72
-36 72 -19 -1 7 -20 22 -43 33 -45 21 -51 37 -17 45 33 8 19 25 -17 22 -19 -2
-33 1 -33 7 0 6 -7 11 -15 11 -9 0 -15 -7 -13 -16z"/>
<path d="M1954 3229 c-15 -17 -16 -23 -6 -40 10 -16 8 -25 -13 -59 -14 -22
-25 -43 -25 -47 0 -5 -5 -15 -10 -23 -8 -13 -11 -13 -22 3 -11 15 -18 16 -42
7 -21 -7 -27 -15 -23 -29 7 -27 -48 -67 -69 -50 -22 18 -67 -26 -52 -50 15
-24 -17 -73 -45 -69 -27 4 -48 -50 -24 -63 12 -7 13 -15 4 -44 -6 -19 -16 -35
-24 -35 -8 0 -13 -13 -13 -35 0 -22 5 -35 13 -35 7 0 18 -18 24 -40 8 -33 8
-40 -4 -40 -9 0 -13 -8 -12 -22 2 -13 0 -29 -5 -36 -12 -20 -36 32 -36 77 0
20 -4 41 -9 47 -12 13 6 153 24 186 8 14 15 31 15 37 0 5 11 22 25 37 14 15
25 33 25 40 0 13 47 61 179 186 34 31 61 64 61 72 0 20 -45 21 -79 2 -13 -7
-32 -11 -41 -9 -20 5 -95 -32 -113 -56 -6 -9 -19 -16 -27 -16 -8 0 -22 -14
-30 -30 -8 -17 -25 -40 -38 -53 -12 -12 -22 -31 -22 -42 0 -11 -6 -23 -14 -26
-8 -3 -18 -20 -22 -37 -3 -18 -13 -39 -21 -48 -7 -9 -17 -34 -20 -55 -3 -22
-10 -44 -15 -51 -13 -17 -7 -222 7 -258 7 -16 18 -44 25 -62 6 -17 22 -41 36
-54 13 -12 24 -28 24 -34 0 -6 11 -22 25 -35 14 -13 25 -28 25 -35 0 -17 92
-98 134 -117 20 -10 58 -18 85 -18 26 0 63 -5 82 -12 l34 -12 -39 -11 -38 -11
24 -16 c23 -15 29 -15 70 -1 40 15 49 15 90 1 42 -13 48 -13 68 2 l23 17 -39
8 -39 8 35 15 c19 8 57 14 83 13 56 -2 130 27 146 57 6 12 20 23 30 27 10 3
26 20 35 38 8 18 24 41 36 52 11 10 20 23 20 29 0 5 13 24 29 41 47 48 63 105
68 241 3 80 1 124 -6 129 -6 3 -11 21 -11 38 0 18 -9 46 -20 62 -11 17 -20 37
-20 46 0 9 -9 26 -20 39 -11 13 -20 29 -20 36 0 7 -11 25 -25 40 -14 15 -25
32 -25 39 0 16 -38 50 -47 42 -3 -4 -12 2 -20 12 -17 26 -70 53 -108 57 -16 2
-49 9 -72 15 -23 7 -45 10 -49 7 -12 -13 8 -46 41 -69 18 -13 32 -27 29 -30
-2 -4 10 -18 28 -30 18 -12 41 -30 50 -40 10 -10 23 -21 30 -26 7 -4 26 -28
43 -53 16 -25 37 -54 46 -65 9 -11 20 -31 23 -45 7 -24 7 -24 -9 -5 -9 12 -25
19 -38 17 -16 -2 -27 6 -39 25 -14 25 -14 30 -1 42 13 12 12 17 -12 40 -24 24
-28 24 -38 9 -10 -15 -13 -15 -40 4 -22 16 -27 26 -23 43 5 19 0 25 -26 34
-32 11 -47 3 -48 -24 0 -16 -27 18 -53 69 -19 35 -24 57 -20 79 5 22 1 33 -12
44 -26 18 -39 16 -61 -8z m49 -24 c1 -5 -6 -11 -15 -13 -11 -2 -18 3 -18 13 0
17 30 18 33 0z m-153 -22 c0 -13 -68 -55 -82 -51 -7 3 5 16 27 31 41 28 55 33
55 20z m336 -29 c28 -24 28 -25 4 -18 -30 8 -70 33 -70 44 0 14 35 0 66 -26z
m-456 -19 c-7 -9 -15 -13 -18 -10 -3 2 1 11 8 20 7 9 15 13 18 10 3 -2 -1 -11
-8 -20z m303 -24 c31 -57 32 -61 12 -61 -9 0 -15 9 -15 25 0 22 -4 25 -35 25
-28 0 -35 -4 -35 -19 0 -17 -18 -31 -40 -31 -4 0 -6 9 -3 20 3 11 8 20 12 20
4 0 15 16 24 35 24 50 48 46 80 -14z m221 33 c9 -24 7 -28 -9 -14 -17 14 -20
30 -6 30 5 0 12 -7 15 -16z m-578 -49 c-4 -14 -11 -25 -16 -25 -13 0 -13 16 1
42 14 26 23 16 15 -17z m644 -14 c-1 -13 -4 -12 -15 3 -8 11 -15 27 -15 35 1
13 4 12 15 -3 8 -11 15 -27 15 -35z m-542 24 c-8 -8 -68 -25 -68 -19 0 6 41
23 59 23 8 1 12 -1 9 -4z m476 -16 c6 -5 -4 -5 -24 1 -18 5 -35 12 -39 16 -9
10 53 -6 63 -17z m-633 -56 c-9 -16 -10 -16 -11 -1 0 9 3 25 7 35 7 16 8 17
11 1 2 -10 -1 -25 -7 -35z m736 0 c-3 -10 -5 -4 -5 12 0 17 2 24 5 18 2 -7 2
-21 0 -30z m-642 17 c-3 -5 -15 -10 -26 -10 -11 0 -17 5 -14 10 3 6 15 10 26
10 11 0 17 -4 14 -10z m585 0 c12 -8 12 -10 -5 -10 -11 0 -27 5 -35 10 -12 8
-12 10 5 10 11 0 27 -5 35 -10z m-731 -96 c-12 -27 -13 -27 -16 -7 -5 26 19
77 24 52 2 -8 -2 -29 -8 -45z m81 36 c-6 -11 -18 -20 -28 -20 -14 1 -13 4 7
20 29 25 34 25 21 0z m704 -6 c8 -21 -17 -17 -31 5 -10 16 -9 18 7 14 10 -3
21 -11 24 -19z m61 -43 c-8 -8 -25 51 -18 62 4 7 10 -3 14 -23 4 -19 6 -37 4
-39z m-455 34 c0 -11 -11 -15 -42 -15 -47 0 -45 9 4 20 18 4 34 8 36 9 1 1 2
-6 2 -14z m120 -5 c11 -7 7 -10 -17 -10 -18 0 -33 5 -33 10 0 13 30 13 50 0z
m-190 -49 l20 -40 -23 -3 c-16 -2 -23 -11 -25 -30 -4 -31 -9 -33 -35 -13 -13
9 -17 20 -12 36 8 24 45 89 51 89 2 0 13 -18 24 -39z m-72 -11 c-22 -39 -41
-50 -53 -31 -4 7 61 71 73 71 1 0 -8 -18 -20 -40z m316 28 c-3 -4 5 -26 17
-48 22 -39 22 -40 3 -55 -27 -20 -32 -19 -36 13 -2 19 -9 28 -24 30 -20 3 -20
4 -6 37 10 21 22 33 33 32 10 -1 15 -5 13 -9z m-534 -23 c-13 -14 -26 -23 -28
-20 -7 7 29 45 41 45 6 0 0 -11 -13 -25z m455 -11 c-19 -46 -19 -44 8 -44 21
0 25 -7 35 -52 6 -29 14 -80 17 -113 4 -33 9 -68 11 -77 4 -15 -1 -18 -29 -18
-22 0 -37 6 -41 15 -3 8 -17 15 -31 15 -14 0 -25 5 -25 10 0 6 20 10 45 10 33
0 45 4 45 15 0 8 -8 15 -18 15 -14 0 -17 7 -14 45 3 33 8 45 20 45 12 0 10 6
-8 25 l-24 25 -23 -22 -23 -21 0 51 c0 40 4 52 15 52 8 0 15 7 15 15 0 8 -6
15 -14 15 -8 0 -17 6 -20 13 -5 10 -7 10 -12 0 -3 -7 -12 -13 -20 -13 -19 0
-18 -19 1 -26 8 -4 15 -19 15 -34 0 -25 -4 -29 -32 -32 -31 -3 -33 -5 -34 -46
-1 -23 2 -45 7 -48 5 -3 0 -18 -11 -34 -11 -15 -20 -31 -20 -34 0 -3 20 -6 45
-6 25 0 45 -4 45 -10 0 -5 -8 -10 -19 -10 -10 0 -24 -7 -31 -15 -12 -14 -80
-22 -80 -9 0 10 30 207 36 232 3 15 12 22 29 22 28 0 31 16 10 44 -8 10 -12
23 -9 27 3 5 39 9 80 9 l74 0 -15 -36z m329 23 c11 -8 17 -19 15 -26 -3 -8
-13 -3 -28 13 -26 28 -17 35 13 13z m-850 -60 c-6 -18 -7 -18 -15 -4 -5 9 -6
29 -3 44 l7 27 9 -24 c5 -12 6 -32 2 -43z m656 38 c18 -20 21 -28 12 -37 -14
-14 -23 -6 -40 35 -14 34 -3 35 28 2z m270 -22 c0 -24 -16 -31 -22 -11 -3 7
-2 23 0 36 4 18 7 20 13 10 5 -7 9 -23 9 -35z m-911 -60 c-13 -16 -25 -30 -26
-32 -2 -2 -3 1 -3 7 0 13 35 52 47 52 3 0 -4 -12 -18 -27z m900 -18 c3 -16 1
-17 -10 -4 -8 8 -21 23 -29 34 -15 19 -14 19 10 4 14 -9 27 -25 29 -34z m-949
-12 c0 -35 -3 -44 -10 -33 -13 20 -13 80 0 80 6 0 10 -21 10 -47z m981 -36
c-8 -8 -11 1 -11 29 0 53 14 67 18 19 2 -21 -1 -42 -7 -48z m-76 -66 c0 -114
-12 -171 -37 -171 -5 0 -4 9 2 20 13 24 6 40 -17 40 -10 0 -13 6 -9 16 3 9 6
27 6 40 0 19 5 24 26 24 23 0 25 3 22 33 -2 24 -8 33 -25 35 -15 2 -23 10 -23
22 0 10 -3 26 -6 35 -5 11 0 18 15 22 11 3 21 10 21 16 0 7 4 7 12 -1 9 -9 13
-50 13 -131z m-663 76 c-9 -17 -20 -34 -23 -37 -10 -9 -18 -40 -10 -40 4 0 20
23 35 50 29 53 32 53 78 17 15 -12 17 -24 12 -73 -6 -57 -8 -60 -53 -89 -25
-16 -50 -30 -55 -30 -16 0 -34 68 -24 89 7 13 6 21 -2 26 -14 9 -10 66 9 113
9 24 14 26 30 17 19 -10 19 -11 3 -43z m528 8 c6 -19 10 -45 8 -57 -3 -19 -8
-15 -30 28 -15 28 -24 54 -21 58 15 15 32 3 43 -29z m-35 -35 c14 -27 29 -50
33 -50 4 0 8 -10 9 -22 1 -24 -17 -108 -23 -108 -2 0 -26 14 -53 30 -45 28
-49 34 -57 83 -4 28 -8 55 -8 59 -1 6 63 58 71 58 1 0 14 -22 28 -50z m-685
31 c0 -5 -9 -19 -19 -32 l-20 -24 6 25 c3 14 11 28 17 32 14 10 16 10 16 -1z
m903 -27 c4 -24 3 -24 -14 -8 -22 20 -25 46 -5 38 8 -3 16 -16 19 -30z m-421
-19 c3 -38 0 -45 -14 -45 -15 0 -18 9 -18 45 0 32 4 45 14 45 9 0 15 -15 18
-45z m-546 -25 c5 -33 5 -34 -10 -16 -9 11 -16 31 -16 45 0 35 18 14 26 -29z
m1024 28 c0 -26 -16 -55 -25 -47 -5 6 14 69 21 69 2 0 4 -10 4 -22z m-530 -14
c0 -8 -5 -12 -10 -9 -6 4 -8 11 -5 16 9 14 15 11 15 -7z m-445 -46 c-10 -46
-25 -59 -25 -22 0 26 15 54 28 54 2 0 1 -15 -3 -32z m420 22 c3 -5 -1 -10 -10
-10 -9 0 -13 5 -10 10 3 6 8 10 10 10 2 0 7 -4 10 -10z m503 -22 c10 -35 4
-60 -8 -37 -4 8 -10 26 -14 42 -9 39 12 34 22 -5z m-973 -58 c22 -42 18 -60
-5 -25 -19 28 -26 55 -15 55 2 0 11 -13 20 -30z m1010 -20 c-23 -44 -29 -32
-9 16 9 21 19 34 21 27 2 -6 -3 -26 -12 -43z m-954 -47 c-9 -17 -10 -17 -17 0
-4 10 0 30 7 44 l14 27 3 -27 c2 -15 -1 -34 -7 -44z m907 14 c-6 -34 -23 -22
-26 18 -2 38 -1 39 13 20 9 -11 14 -28 13 -38z m-488 33 c0 -5 -5 -10 -11 -10
-5 0 -7 5 -4 10 3 6 8 10 11 10 2 0 4 -4 4 -10z m-40 -25 c-7 -8 -23 -15 -35
-15 -12 0 -28 -7 -35 -15 -13 -16 -40 -21 -40 -7 0 12 74 51 99 52 20 0 21 -2
11 -15z m209 -12 c22 -14 39 -29 36 -31 -2 -3 -16 3 -29 12 -14 9 -36 16 -50
16 -13 0 -26 7 -30 15 -9 24 27 18 73 -12z m-616 -38 c15 -21 16 -25 3 -25 -9
0 -22 13 -31 30 -19 36 0 32 28 -5z m500 28 c-13 -2 -35 -2 -50 0 -16 2 -5 4
22 4 28 0 40 -2 28 -4z m476 -23 c-6 -16 -17 -30 -25 -30 -20 0 -17 10 8 37
28 30 29 29 17 -7z m-556 8 c35 -17 34 -35 -3 -43 -55 -12 -88 13 -58 43 15
15 27 15 61 0z m181 -7 c15 -16 15 -20 1 -31 -20 -16 -85 -5 -85 15 0 8 7 15
15 15 8 0 15 5 15 10 0 17 36 11 54 -9z m-544 -16 c0 -8 -4 -15 -10 -15 -5 0
-7 7 -4 15 4 8 8 15 10 15 2 0 4 -7 4 -15z m112 -16 l18 -30 -43 3 c-49 4 -64
32 -25 47 32 14 31 14 50 -20z m108 21 c0 -5 -11 -10 -25 -10 -14 0 -25 5 -25
10 0 6 11 10 25 10 14 0 25 -4 25 -10z m460 -6 c0 -8 -4 -12 -10 -9 -5 3 -10
10 -10 16 0 5 5 9 10 9 6 0 10 -7 10 -16z m113 -4 c5 -4 4 -17 -2 -28 -8 -15
-18 -19 -42 -16 -42 5 -44 8 -23 38 16 26 43 28 67 6z m44 -2 c-3 -8 -6 -5 -6
6 -1 11 2 17 5 13 3 -3 4 -12 1 -19z m-556 -18 c10 -6 19 -17 19 -25 0 -11 12
-15 45 -15 41 0 45 -2 45 -24 0 -24 0 -24 -49 -11 -26 7 -57 17 -67 23 -17 10
-17 11 -1 12 9 0 17 5 17 10 0 6 -11 10 -24 10 -13 0 -32 3 -41 6 -13 5 -14 8
-3 15 18 12 35 11 59 -1z m338 -6 c-17 -17 -69 -27 -69 -13 0 13 33 28 60 29
22 0 23 -1 9 -16z m-599 -24 c0 -11 -6 -20 -14 -20 -18 0 -29 16 -21 30 11 18
35 11 35 -10z m433 13 c-13 -2 -35 -2 -50 0 -16 2 -5 4 22 4 28 0 40 -2 28 -4z
m390 -7 c7 -19 -18 -42 -28 -26 -8 13 1 40 14 40 5 0 11 -6 14 -14z m-880 -16
c3 -11 1 -20 -4 -20 -5 0 -9 2 -9 4 0 2 -3 11 -6 20 -3 9 -2 16 4 16 5 0 12
-9 15 -20z m580 0 l32 -1 -25 -13 c-14 -8 -40 -17 -57 -21 -29 -6 -33 -4 -33
14 0 14 6 21 20 21 11 0 20 6 21 13 0 10 2 10 6 0 2 -7 19 -13 36 -13z m347
13 c0 -5 -5 -15 -10 -23 -8 -12 -10 -11 -10 8 0 12 5 22 10 22 6 0 10 -3 10
-7z m-760 -45 c27 -29 31 -31 40 -16 10 16 13 15 44 -5 27 -18 32 -26 24 -40
-7 -14 -3 -19 17 -27 35 -13 42 -13 52 4 12 20 74 8 80 -15 7 -27 73 -27 73 0
0 26 60 38 77 15 9 -13 18 -14 40 -7 23 8 27 15 25 36 -2 16 1 27 8 27 6 0 18
7 27 15 14 14 17 14 33 0 16 -15 19 -14 43 15 14 16 34 30 44 30 15 -1 14 -4
-7 -21 -14 -11 -34 -28 -45 -38 -12 -9 -28 -20 -38 -24 -20 -8 -67 -80 -67
-104 0 -25 -56 -61 -127 -82 -58 -18 -60 -18 -126 4 -75 24 -112 53 -120 94
-7 34 -53 91 -73 91 -8 0 -14 3 -14 8 0 4 -13 16 -30 27 -34 23 -46 45 -25 45
9 0 29 -15 45 -32z m660 3 c0 -5 -9 -19 -20 -32 -17 -21 -19 -21 -13 -4 10 33
33 57 33 36z m-780 -11 c8 -5 11 -10 5 -10 -5 0 -17 5 -25 10 -8 5 -10 10 -5
10 6 0 17 -5 25 -10z m70 -33 c0 -5 -7 -4 -15 3 -8 7 -15 20 -15 29 1 13 3 13
15 -3 8 -11 15 -24 15 -29z m-31 -18 c18 -11 31 -23 28 -26 -11 -10 -52 6 -65
27 -15 25 -6 25 37 -1z m91 -35 c0 -8 -4 -14 -10 -14 -5 0 -10 1 -10 3 0 1 -4
18 -10 37 l-9 35 19 -24 c11 -13 20 -29 20 -37z m576 12 c-8 -20 -18 -36 -22
-36 -9 0 5 52 18 68 18 21 20 6 4 -32z m102 24 c-13 -21 -54 -37 -65 -27 -5 6
55 47 70 47 4 0 2 -9 -5 -20z m-623 -60 c21 -41 18 -60 -5 -31 -18 21 -28 61
-15 61 2 0 11 -13 20 -30z m450 -26 c-24 -37 -29 -23 -9 22 13 29 18 34 21 21
3 -10 -3 -29 -12 -43z m-524 10 c37 -19 32 -28 -10 -19 -35 7 -64 35 -37 35 9
0 31 -7 47 -16z m639 1 c-9 -8 -31 -17 -50 -21 l-35 -6 30 21 c17 11 39 21 50
21 17 0 18 -2 5 -15z m-521 -70 c15 -16 13 -17 -34 -10 -56 8 -65 12 -65 27 0
16 80 2 99 -17z m451 16 c0 -14 -10 -18 -64 -26 -37 -6 -47 -5 -41 4 15 25
105 43 105 22z"/>
<path d="M2566 3188 c-4 -9 -2 -26 4 -38 9 -17 9 -21 0 -15 -6 4 -20 -2 -31
-14 -11 -12 -25 -18 -31 -15 -6 4 0 13 16 23 25 15 36 51 16 51 -5 0 -10 -7
-10 -15 0 -8 -6 -12 -14 -9 -7 3 -16 -2 -19 -10 -4 -9 -18 -16 -33 -16 -25 0
-26 -2 -13 -17 8 -10 25 -39 38 -65 13 -27 30 -48 38 -48 11 0 11 4 2 23 -11
21 -11 21 7 5 16 -14 21 -14 32 -2 7 8 22 14 32 14 11 0 20 6 20 14 0 8 7 17
16 20 15 6 14 9 -2 34 -9 15 -25 33 -35 40 -10 7 -19 22 -22 35 -3 19 -5 19
-11 5z m-58 -123 c-3 -3 -9 2 -12 12 -6 14 -5 15 5 6 7 -7 10 -15 7 -18z"/>
<path d="M1393 3161 c-3 -11 -9 -21 -13 -21 -5 0 -17 -14 -28 -32 l-21 -32 31
-28 c38 -33 52 -36 43 -7 -5 15 -4 19 4 14 7 -4 19 -1 29 7 15 11 14 9 -1 -15
-20 -32 -16 -47 7 -28 8 7 19 10 24 7 16 -9 47 33 34 46 -7 7 -8 15 0 28 9 13
7 21 -9 37 -11 11 -28 22 -39 25 -10 3 -27 9 -37 13 -14 6 -20 2 -24 -14z m97
-41 c0 -5 -4 -10 -9 -10 -6 0 -13 5 -16 10 -3 6 1 10 9 10 9 0 16 -4 16 -10z
m-10 -70 c0 -5 -5 -10 -11 -10 -5 0 -7 5 -4 10 3 6 8 10 11 10 2 0 4 -4 4 -10z"/>
<path d="M1510 2240 c-13 -8 -13 -10 2 -10 9 0 20 -4 23 -10 3 -5 0 -7 -8 -4
-8 3 -23 -5 -33 -18 -11 -13 -27 -27 -36 -31 -10 -3 -18 -11 -18 -18 0 -6 7
-9 15 -5 9 3 15 0 15 -9 0 -18 16 -20 24 -2 3 6 3 2 0 -10 -6 -25 5 -30 25
-10 10 10 10 7 2 -16 -9 -22 -8 -29 4 -33 23 -9 44 3 55 31 5 14 17 28 25 32
9 3 14 12 11 19 -3 8 0 11 10 7 7 -3 14 -1 14 3 -1 15 -40 57 -47 51 -3 -4
-14 5 -25 18 -21 27 -34 30 -58 15z"/>
<path d="M2445 2240 c-3 -5 -15 -10 -26 -10 -10 0 -19 -5 -19 -12 0 -6 -7 -20
-17 -30 -15 -17 -15 -20 7 -43 22 -24 23 -24 39 -4 15 19 18 19 44 6 18 -9 24
-18 17 -22 -6 -4 -18 -1 -26 6 -13 10 -17 10 -25 -2 -11 -18 -11 -40 1 -59 8
-12 10 -12 15 2 4 10 3 23 -1 30 -6 9 -3 9 9 -1 15 -12 21 -11 42 9 14 13 25
29 25 36 0 7 5 14 12 16 18 6 -1 28 -24 28 -14 0 -18 -5 -14 -15 4 -10 -1 -15
-14 -15 -25 0 -26 19 -3 35 17 12 17 14 -1 34 -21 23 -32 26 -41 11z m20 -30
c-3 -5 -10 -10 -16 -10 -5 0 -9 5 -9 10 0 6 7 10 16 10 8 0 12 -4 9 -10z m-35
-29 c0 -5 -7 -11 -15 -15 -15 -5 -20 5 -8 17 9 10 23 9 23 -2z"/>
<path d="M1766 2073 c-4 -9 -1 -20 6 -25 10 -6 10 -8 -1 -8 -8 0 -12 -3 -9 -6
4 -3 0 -21 -8 -39 -8 -19 -14 -38 -14 -43 0 -15 61 -23 77 -10 8 6 13 7 12 2
-4 -20 2 -24 21 -14 16 9 20 8 20 -5 0 -8 5 -15 10 -15 16 0 24 31 11 39 -9 6
-8 11 4 21 20 16 20 44 0 36 -8 -3 -15 -1 -15 4 0 6 9 10 21 10 29 0 22 42 -8
46 -13 2 -23 -1 -23 -6 0 -17 -49 -6 -53 12 -6 23 -43 24 -51 1z m54 -48 c0
-8 -4 -15 -10 -15 -5 0 -7 7 -4 15 4 8 8 15 10 15 2 0 4 -7 4 -15z m50 -5 c0
-5 -7 -10 -15 -10 -8 0 -15 5 -15 10 0 6 7 10 15 10 8 0 15 -4 15 -10z m-10
-60 c0 -5 -5 -10 -11 -10 -5 0 -7 5 -4 10 3 6 8 10 11 10 2 0 4 -4 4 -10z"/>
<path d="M2184 2065 c7 -27 -8 -35 -18 -9 -5 12 -13 14 -34 9 -39 -10 -57 -26
-40 -36 7 -5 13 -14 13 -21 1 -34 18 -98 25 -98 5 0 19 4 32 9 50 20 63 24 76
22 20 -3 25 27 12 75 -9 32 -17 43 -27 39 -9 -3 -17 3 -20 15 -3 11 -10 20
-15 20 -6 0 -7 -11 -4 -25z m48 -65 c3 -17 1 -33 -3 -35 -4 -3 -9 11 -11 30
-5 43 8 47 14 5z m-33 -17 c-1 -34 -2 -35 -9 -13 -11 36 -11 50 0 50 6 0 10
-17 9 -37z"/>
<path d="M217 1582 c-15 -17 -15 -19 8 -36 32 -24 32 -36 0 -36 -18 0 -25 -5
-25 -20 0 -11 7 -20 15 -20 8 0 15 -4 15 -9 0 -5 -7 -14 -15 -21 -25 -21 -19
-50 10 -50 33 0 32 -19 -5 -60 -33 -37 -36 -50 -18 -68 17 -17 23 -15 36 12
l11 24 38 -19 c29 -15 58 -19 140 -19 l103 0 0 26 c0 24 -2 25 -45 18 -29 -4
-45 -3 -45 4 0 6 19 12 43 14 34 2 42 7 42 23 0 16 -9 21 -45 26 -37 5 -39 6
-12 7 24 2 32 7 32 20 0 10 4 22 9 28 5 5 12 23 16 41 6 29 4 33 -20 39 -19 5
-23 10 -16 17 6 6 11 21 11 34 0 21 -5 23 -44 23 -25 0 -48 5 -51 10 -11 18
-37 11 -73 -21 l-35 -31 -29 31 c-16 17 -30 31 -32 31 -2 0 -10 -8 -19 -18z
m90 -79 c-8 -7 -37 9 -31 19 3 5 12 4 20 -3 8 -6 13 -14 11 -16z m168 -33 c18
-8 17 -9 -7 -9 -15 -1 -30 4 -33 9 -7 12 12 12 40 0z m-160 -49 c6 -35 10 -40
38 -44 26 -3 24 -4 -11 -5 -39 -2 -43 -4 -40 -24 2 -19 10 -24 46 -26 23 -2
42 -8 42 -14 0 -13 -69 -1 -88 15 -10 7 -11 24 -7 59 6 40 4 48 -9 48 -19 0
-20 6 -3 24 17 19 24 12 32 -33z m72 43 c-3 -3 -12 -4 -19 -1 -8 3 -5 6 6 6
11 1 17 -2 13 -5z"/>
<path d="M1067 1593 c-4 -3 -7 -24 -7 -45 l0 -38 -70 0 c-68 0 -70 -1 -70 -25
0 -23 4 -24 63 -27 l63 -3 -8 -31 c-8 -33 -56 -89 -100 -118 -23 -15 -25 -20
-15 -37 6 -10 18 -19 25 -19 21 0 120 105 128 134 8 34 16 33 33 -5 13 -29
108 -129 123 -129 4 0 13 10 19 22 10 19 9 24 -12 37 -40 27 -65 54 -93 104
l-28 47 66 0 c64 0 66 1 66 25 0 24 -2 25 -70 25 l-70 0 0 45 c0 37 -3 45 -18
45 -10 0 -22 -3 -25 -7z"/>
<path d="M1365 1593 c-71 -13 -67 -8 -60 -78 5 -45 4 -65 -4 -65 -6 0 -11 -16
-11 -36 0 -31 3 -35 23 -34 41 4 152 -2 135 -7 -10 -2 -18 -9 -18 -14 0 -5
-31 -9 -70 -9 -63 0 -70 -2 -70 -20 0 -18 7 -20 73 -21 41 -1 62 -4 49 -7 -13
-4 -23 -10 -23 -14 1 -5 1 -15 1 -23 0 -10 10 -15 33 -15 37 0 57 15 57 42 0
16 9 18 70 18 63 0 70 2 70 20 0 18 -7 20 -62 21 -42 1 -55 3 -38 8 15 4 26
15 28 29 3 21 0 21 -105 25 l-108 3 111 2 c104 2 112 1 117 -18 3 -12 14 -20
26 -20 17 0 21 6 21 35 0 20 -5 35 -11 35 -9 0 -10 21 -6 70 l6 70 -50 0 c-46
0 -49 -2 -49 -26 0 -14 -4 -23 -9 -20 -5 3 -7 14 -4 25 4 16 -1 18 -36 18 -23
0 -41 -4 -41 -10 0 -6 -6 -4 -12 4 -7 9 -22 14 -33 12z m40 -43 c-3 -5 -16
-10 -28 -9 -21 0 -21 1 -2 9 28 12 37 12 30 0z m55 -30 c0 -5 -4 -10 -10 -10
-5 0 -10 5 -10 10 0 6 5 10 10 10 6 0 10 -4 10 -10z m-53 -32 c-3 -7 -5 -2 -5
12 0 14 2 19 5 13 2 -7 2 -19 0 -25z m3 -28 c0 -5 -12 -10 -27 -9 l-28 1 25 8
c14 4 26 8 28 9 1 1 2 -3 2 -9z m123 -7 c-7 -2 -21 -2 -30 0 -10 3 -4 5 12 5
17 0 24 -2 18 -5z"/>
<path d="M1820 1575 c0 -23 -3 -24 -72 -27 l-73 -3 -6 -100 c-3 -55 -11 -115
-18 -133 -10 -26 -11 -35 -1 -47 18 -22 24 -19 45 23 10 20 20 31 22 25 3 -7
16 -13 29 -13 14 0 24 -6 24 -14 0 -7 7 -19 15 -26 12 -10 21 -8 50 14 l35 27
31 -25 c24 -21 34 -24 49 -16 24 13 41 70 27 88 -15 19 -37 14 -37 -8 0 -11
-4 -20 -9 -20 -19 0 -20 32 -1 68 29 55 30 86 3 90 -17 2 -23 -3 -28 -27 -9
-44 -25 -38 -25 9 l0 40 50 0 c41 0 50 3 50 18 -1 26 -63 84 -83 76 -20 -7
-22 -30 -4 -37 7 -3 5 -6 -5 -6 -13 -1 -18 7 -18 24 0 20 -5 25 -25 25 -20 0
-25 -5 -25 -25z m4 -97 c6 -30 16 -88 19 -111 1 -11 -12 -30 -33 -45 -19 -15
-29 -19 -21 -10 7 10 16 47 19 83 l5 65 -47 0 c-39 0 -46 3 -46 20 0 17 7 20
50 20 43 0 50 -3 54 -22z m-64 -96 c0 -34 -6 -41 -29 -35 -25 6 -16 63 10 63
14 0 19 -7 19 -28z"/>
<path d="M2066 1585 c-8 -8 -24 -15 -35 -15 -16 0 -21 -6 -21 -25 0 -25 1 -25
88 -27 l87 -2 -83 -3 -83 -4 2 -72 c2 -41 -3 -81 -9 -94 -17 -31 -15 -40 9
-46 11 -3 23 -15 26 -26 6 -23 41 -29 61 -9 7 7 12 30 13 53 0 36 1 38 11 18
6 -13 15 -23 20 -23 5 0 6 -4 3 -10 -3 -5 0 -19 8 -30 11 -16 16 -18 24 -8 24
30 46 86 53 133 7 45 8 41 9 -38 1 -83 2 -88 26 -99 19 -9 29 -8 50 6 40 26
32 96 -11 96 -2 0 -4 -11 -4 -24 0 -14 -4 -28 -10 -31 -6 -4 -10 23 -10 74 0
75 -1 80 -22 84 -13 2 -2 5 25 6 39 1 47 4 47 20 0 11 -5 23 -10 26 -6 4 -8
11 -5 16 9 13 -27 58 -47 59 -23 0 -23 -28 -1 -52 15 -17 15 -18 -5 -18 -19 0
-22 6 -22 40 0 36 -2 40 -25 40 -23 0 -25 -4 -26 -42 -1 -35 -2 -38 -8 -18 -5
18 -15 26 -36 28 -17 2 -34 10 -38 18 -10 18 -32 18 -51 -1z m54 -125 c0 -5
-11 -10 -25 -10 -14 0 -25 5 -25 10 0 6 11 10 25 10 14 0 25 -4 25 -10z m77
-40 c-7 -62 -19 -84 -27 -51 -10 41 1 101 17 101 13 0 15 -9 10 -50z m-130
-26 c-3 -3 -12 -4 -19 -1 -8 3 -5 6 6 6 11 1 17 -2 13 -5z m3 -59 c0 -23 -5
-35 -14 -35 -10 0 -11 7 -2 35 6 19 12 35 13 35 2 0 3 -16 3 -35z"/>
<path d="M2430 1591 l-35 -6 3 -68 c1 -41 -2 -67 -8 -67 -5 0 -10 -16 -10 -35
0 -28 4 -35 20 -35 13 0 20 7 20 20 0 19 7 20 115 20 108 0 115 -1 115 -20 0
-15 7 -20 25 -20 22 0 25 4 25 35 0 19 -4 35 -10 35 -6 0 -10 30 -10 71 l0 71
-96 -4 c-52 -3 -97 -1 -100 4 -3 4 -8 7 -12 7 -4 -1 -23 -4 -42 -8z m65 -41
c-3 -5 -16 -10 -28 -9 -21 0 -21 1 -2 9 28 12 37 12 30 0z m55 -30 c0 -5 -4
-10 -10 -10 -5 0 -10 5 -10 10 0 6 5 10 10 10 6 0 10 -4 10 -10z m-67 -67 c-7
-2 -21 -2 -30 0 -10 3 -4 5 12 5 17 0 24 -2 18 -5z m140 0 c-7 -2 -21 -2 -30
0 -10 3 -4 5 12 5 17 0 24 -2 18 -5z"/>
<path d="M2887 1593 c-4 -3 -7 -17 -7 -30 0 -31 -37 -32 -42 0 -2 14 -11 23
-25 25 -17 3 -23 -3 -28 -30 -4 -18 -18 -51 -32 -72 -27 -42 -22 -72 11 -70
10 1 16 -6 16 -17 0 -16 8 -19 50 -19 l50 0 0 -35 0 -35 -70 0 c-68 0 -70 -1
-70 -25 l0 -25 165 0 165 0 0 25 c0 24 -2 25 -70 25 l-70 0 0 35 0 35 55 0
c52 0 55 1 55 25 0 24 -3 25 -55 25 -54 0 -55 0 -55 30 l0 30 61 0 c57 0 60 1
57 23 -3 19 -10 22 -60 25 -57 3 -58 4 -58 32 0 22 -5 30 -18 30 -10 0 -22 -3
-25 -7z m-7 -133 c0 -29 -1 -30 -51 -30 l-50 0 21 30 c15 22 30 30 51 30 26 0
29 -3 29 -30z"/>
<path d="M3240 1570 l0 -30 -65 0 -65 0 0 -95 c0 -95 0 -95 25 -95 14 0 25 5
25 10 0 6 18 10 40 10 l40 0 0 -60 c0 -57 1 -60 25 -60 24 0 25 3 25 60 l0 60
40 0 c22 0 40 -4 40 -10 0 -5 11 -10 25 -10 25 0 25 0 25 95 l0 95 -65 0 -65
0 0 30 c0 25 -4 30 -25 30 -21 0 -25 -5 -25 -30z m0 -115 c0 -34 -1 -35 -40
-35 -39 0 -40 1 -40 35 0 34 1 35 40 35 39 0 40 -1 40 -35z m130 0 c0 -34 -1
-35 -40 -35 -39 0 -40 1 -40 35 0 34 1 35 40 35 39 0 40 -1 40 -35z"/>
<path d="M3593 1593 c-19 -7 -16 -27 8 -54 11 -13 29 -35 39 -49 15 -21 20
-22 34 -11 22 18 21 22 -19 75 -36 46 -40 49 -62 39z"/>
<path d="M580 1470 l0 -121 60 7 60 7 0 -57 c0 -53 1 -56 25 -56 24 0 25 3 25
56 l0 57 60 -7 60 -7 0 121 0 120 -145 0 -145 0 0 -120z m120 50 c0 -16 -7
-20 -35 -20 -28 0 -35 4 -35 20 0 16 7 20 35 20 28 0 35 -4 35 -20z m120 0 c0
-16 -7 -20 -35 -20 -28 0 -35 4 -35 20 0 16 7 20 35 20 28 0 35 -4 35 -20z
m-120 -90 c0 -16 -7 -20 -35 -20 -28 0 -35 4 -35 20 0 16 7 20 35 20 28 0 35
-4 35 -20z m120 0 c0 -16 -7 -20 -35 -20 -28 0 -35 4 -35 20 0 16 7 20 35 20
28 0 35 -4 35 -20z"/>
<path d="M3540 1500 c0 -17 -6 -20 -27 -18 -26 3 -28 0 -35 -46 -4 -27 -12
-62 -19 -79 -11 -26 -10 -31 6 -43 26 -19 35 -8 55 78 l18 73 1 -87 c1 -82 3
-89 26 -104 30 -19 132 -15 145 6 11 18 22 89 15 101 -4 5 -15 9 -25 9 -14 0
-20 -9 -22 -37 -3 -37 -4 -38 -43 -38 l-40 0 -3 103 c-3 101 -3 102 -27 102
-18 0 -25 -5 -25 -20z"/>
<path d="M3705 1480 c-3 -5 1 -24 9 -42 8 -18 20 -52 27 -75 8 -30 18 -43 30
-43 25 0 33 17 21 48 -5 15 -17 48 -27 75 -12 33 -22 47 -35 47 -10 0 -22 -4
-25 -10z"/>
<path d="M2430 1395 c0 -12 14 -15 63 -16 34 -1 54 -3 45 -6 -10 -2 -18 -9
-18 -14 0 -5 -34 -9 -75 -9 -68 0 -75 -2 -75 -20 0 -18 7 -20 78 -21 42 -1 65
-4 50 -6 -51 -8 -29 -56 23 -51 29 2 34 7 37 31 3 27 4 27 73 27 62 0 69 2 69
20 0 18 -7 20 -57 21 -51 0 -55 2 -30 11 16 6 27 17 27 29 0 18 -8 19 -105 19
-87 0 -105 -3 -105 -15z"/>
<path d="M1026 1064 c-27 -27 -17 -45 37 -68 21 -8 36 -20 32 -26 -9 -15 -45
-12 -51 5 -4 8 -13 15 -21 15 -24 0 -10 -34 20 -48 24 -12 31 -11 53 2 42 28
29 66 -28 80 -31 7 -37 23 -12 33 10 4 22 0 28 -8 6 -9 19 -18 29 -22 10 -4
17 -17 17 -31 0 -13 3 -31 6 -40 7 -17 44 -22 44 -6 0 6 -4 10 -10 10 -15 0
-12 57 3 64 10 5 10 7 0 12 -7 3 -13 12 -13 20 0 19 -19 18 -26 -1 -8 -19 -24
-20 -24 -1 0 28 -59 35 -84 10z"/>
<path d="M1360 1061 c0 -15 -8 -21 -32 -23 -30 -3 -33 -6 -36 -40 -4 -42 23
-68 63 -60 24 4 25 8 25 73 0 39 -4 69 -10 69 -5 0 -10 -9 -10 -19z m-5 -71
c0 -16 -6 -26 -18 -28 -19 -4 -32 20 -23 44 9 25 41 13 41 -16z"/>
<path d="M1718 1069 c-32 -18 -22 -49 22 -67 40 -17 47 -34 18 -40 -9 -2 -23
5 -32 14 -9 9 -20 14 -23 11 -10 -11 6 -37 31 -49 20 -9 30 -8 51 6 43 28 30
66 -27 80 -31 7 -37 23 -12 33 10 4 20 0 26 -10 12 -23 28 -21 28 2 0 29 -47
41 -82 20z"/>
<path d="M2468 1069 c-43 -25 -28 -118 22 -134 27 -9 70 19 70 45 0 26 -8 25
-29 -1 -13 -16 -23 -20 -40 -14 -18 5 -22 13 -19 42 4 46 29 64 56 40 23 -21
32 -22 32 -2 0 29 -58 44 -92 24z"/>
<path d="M1598 1052 c-3 -9 -2 -38 1 -62 5 -37 10 -46 29 -48 12 -2 22 1 22 7
0 6 -4 11 -10 11 -15 0 -12 57 3 64 10 5 10 7 0 12 -7 3 -13 12 -13 20 0 20
-27 17 -32 -4z"/>
<path d="M2780 1055 c0 -16 -5 -18 -67 -15 -35 1 -43 -2 -43 -17 -1 -17 -1
-17 -14 0 -15 20 -56 23 -74 5 -7 -7 -12 -24 -12 -39 0 -53 71 -73 90 -25 9
21 9 21 9 -1 1 -14 7 -23 16 -23 11 0 15 11 15 41 0 33 3 40 18 37 12 -2 18
-14 20 -41 4 -50 22 -48 22 3 0 22 5 40 10 40 6 0 10 -18 10 -40 0 -31 4 -40
18 -40 16 0 19 26 13 118 -1 17 -31 15 -31 -3z m-148 -87 c-9 -9 -15 -9 -24 0
-9 9 -7 12 12 12 19 0 21 -3 12 -12z"/>
<path d="M1190 995 c0 -50 14 -64 61 -57 28 4 29 7 29 53 0 36 -4 49 -14 49
-10 0 -16 -13 -18 -37 -2 -26 -8 -38 -18 -38 -10 0 -16 12 -18 38 -4 52 -22
46 -22 -8z"/>
<path d="M1401 1026 c-19 -23 -9 -69 18 -82 29 -15 50 -8 61 20 9 21 9 21 9
-1 1 -40 29 -27 33 15 2 25 8 37 18 37 10 0 16 -12 18 -37 5 -56 24 -46 20 10
l-3 47 -42 3 c-36 3 -43 0 -43 -15 -1 -17 -1 -17 -11 0 -12 21 -62 23 -78 3z
m51 -58 c-9 -9 -15 -9 -24 0 -9 9 -7 12 12 12 19 0 21 -3 12 -12z"/>
<path d="M1820 995 c0 -50 14 -64 61 -57 20 3 29 10 29 23 0 16 3 15 25 -7 20
-20 29 -23 44 -14 11 5 23 15 26 21 11 17 -3 23 -20 9 -20 -16 -45 -6 -45 20
0 26 25 36 45 20 19 -16 28 -9 19 14 -4 10 -18 16 -39 16 -27 0 -35 -5 -43
-27 l-10 -28 -1 28 c-1 17 -6 27 -16 27 -11 0 -15 -11 -15 -41 0 -33 -3 -40
-17 -37 -13 2 -19 14 -21 41 -4 52 -22 46 -22 -8z"/>
<path d="M2020 1015 c-15 -40 3 -75 40 -75 18 0 33 6 37 15 7 21 -6 33 -17 16
-11 -19 -40 -6 -40 19 0 25 29 38 40 19 11 -17 24 -5 17 16 -4 9 -19 15 -37
15 -23 0 -33 -6 -40 -25z"/>
<path d="M2121 1026 c-19 -23 -9 -69 18 -82 30 -15 50 -8 62 23 7 19 14 23 32
18 33 -11 45 -25 19 -25 -12 0 -22 5 -22 10 0 6 -4 10 -10 10 -18 0 -11 -29
10 -40 26 -14 60 3 60 30 0 11 -12 26 -27 35 l-28 15 29 -6 c22 -5 28 -4 24 7
-7 21 -60 24 -74 5 -10 -15 -12 -15 -18 -1 -7 19 -60 20 -75 1z m51 -58 c-9
-9 -15 -9 -24 0 -9 9 -7 12 12 12 19 0 21 -3 12 -12z"/>
<path d="M2307 1034 c-17 -17 -5 -43 26 -54 26 -11 29 -14 12 -18 -10 -2 -21
1 -23 7 -5 16 -22 13 -22 -4 0 -22 36 -38 60 -25 28 15 25 47 -7 65 l-28 15
29 -6 c22 -5 28 -4 24 7 -5 15 -59 25 -71 13z"/>
<path d="M2836 1024 c-12 -31 -6 -63 16 -78 18 -13 25 -14 42 -3 23 16 30 51
16 78 -13 24 -65 26 -74 3z m51 -10 c-3 -3 -12 -4 -19 -1 -8 3 -5 6 6 6 11 1
17 -2 13 -5z m8 -44 c-3 -5 -12 -10 -20 -10 -8 0 -17 5 -20 10 -4 6 5 10 20
10 15 0 24 -4 20 -10z"/>
<path d="M2930 990 c0 -27 5 -50 10 -50 6 0 10 13 10 30 0 19 7 34 20 42 28
18 25 28 -10 28 -29 0 -30 -1 -30 -50z"/>
</g>
</svg>
