<?xml version="1.0" standalone="no"?>
<!DOCTYPE svg PUBLIC "-//W3C//DTD SVG 20010904//EN"
 "http://www.w3.org/TR/2001/REC-SVG-20010904/DTD/svg10.dtd">
<svg version="1.0" xmlns="http://www.w3.org/2000/svg"
 width="2380.000000pt" height="2380.000000pt" viewBox="0 0 2380.000000 2380.000000"
 preserveAspectRatio="xMidYMid meet">
<metadata>
Created by potrace 1.14, written by Peter Selinger 2001-2017
</metadata>
<g transform="translate(0.000000,2380.000000) scale(0.100000,-0.100000)"
fill="#000000" stroke="none">
<path d="M1825 19560 c-18 -7 -49 -35 -114 -103 -21 -22 -25 -40 -32 -124 -10
-122 -11 -729 -2 -1092 6 -272 6 -272 32 -308 59 -81 70 -88 171 -108 86 -16
132 -17 500 -11 730 11 1510 10 1523 -3 14 -14 12 -137 -3 -177 -15 -39 10
-74 53 -74 47 0 92 15 116 39 12 12 32 21 46 21 14 0 34 9 46 21 11 11 39 29
62 40 53 24 106 56 132 78 38 33 103 42 334 47 456 9 1472 11 2071 5 338 -3
642 -3 675 1 150 17 186 27 239 62 49 32 54 40 61 82 8 59 8 1414 -1 1451 -4
15 -18 40 -33 55 -14 14 -30 31 -36 37 -5 7 -25 25 -42 41 l-33 30 -2872 -1
c-1580 0 -2882 -4 -2893 -9z m816 -366 c8 -8 36 -18 62 -23 25 -4 54 -16 63
-26 10 -10 32 -23 48 -30 26 -11 32 -21 42 -71 13 -62 9 -108 -10 -122 -6 -5
-35 -4 -64 1 -43 7 -53 13 -58 32 -3 14 -15 27 -25 30 -10 4 -19 11 -19 16 0
6 -18 29 -41 51 -37 37 -44 40 -80 35 -45 -6 -110 -56 -129 -99 -7 -16 -16
-28 -20 -28 -13 0 -29 -59 -35 -135 -7 -79 7 -190 28 -214 8 -9 19 -29 24 -45
5 -16 18 -34 28 -40 11 -6 31 -19 44 -28 33 -25 97 -24 113 2 7 11 18 20 25
20 20 0 70 48 83 79 10 25 21 32 64 42 61 13 103 0 91 -29 -4 -9 -12 -45 -17
-80 -11 -61 -13 -65 -66 -103 -30 -21 -63 -39 -72 -39 -10 0 -29 -9 -43 -20
-21 -17 -40 -20 -121 -20 -84 0 -100 3 -119 20 -12 12 -33 24 -47 27 -14 3
-35 16 -47 27 -12 12 -40 37 -63 56 -23 19 -40 43 -40 55 0 11 -9 39 -21 60
-30 57 -38 222 -14 285 9 25 22 71 30 103 13 58 25 75 107 150 17 16 45 27 77
32 28 4 61 15 73 25 13 10 32 20 43 23 29 8 88 -3 106 -19z m4491 -31 c24 -3
40 -12 43 -24 3 -10 14 -21 24 -24 10 -3 21 -18 24 -34 3 -15 17 -42 31 -59
15 -16 26 -41 26 -55 0 -50 -12 -85 -31 -90 -10 -3 -22 -13 -26 -24 -4 -10
-17 -26 -30 -36 -13 -10 -23 -25 -23 -32 0 -8 -9 -17 -20 -20 -11 -3 -20 -11
-20 -16 0 -6 -12 -22 -26 -36 -15 -15 -33 -41 -40 -59 -14 -35 -53 -50 -105
-42 -22 3 -24 7 -23 58 1 50 5 60 45 105 24 27 59 63 77 79 30 28 32 34 32 93
0 61 -2 66 -39 103 -22 22 -46 40 -55 40 -25 0 -83 -62 -96 -103 -13 -40 -39
-57 -89 -57 -42 0 -62 21 -68 71 -4 33 -1 48 11 58 9 7 16 20 16 27 0 7 12 21
28 31 15 10 30 22 34 28 20 28 174 38 300 18z m-3096 -205 c28 -10 36 -20 45
-52 6 -22 19 -51 30 -64 17 -23 19 -43 19 -235 0 -203 -1 -212 -22 -234 -16
-17 -33 -23 -63 -23 -37 0 -43 4 -62 38 -18 33 -21 60 -26 228 -6 230 -11 247
-75 252 -39 3 -48 -1 -80 -34 l-37 -38 -6 -181 c-5 -167 -8 -184 -30 -223 -22
-38 -27 -42 -65 -42 l-41 0 -7 46 c-3 26 -6 160 -6 299 l0 253 23 6 c12 3 65
6 117 7 52 1 109 5 125 10 37 10 115 4 161 -13z m-692 2 c37 -4 72 -12 77 -17
15 -15 39 -165 44 -279 3 -61 10 -146 15 -189 11 -89 6 -125 -20 -125 -10 0
-43 12 -74 26 -66 30 -126 28 -169 -7 -19 -14 -41 -19 -91 -19 -58 0 -67 3
-77 23 -7 12 -25 37 -40 55 -27 30 -29 39 -29 110 0 72 2 80 30 110 16 18 33
39 38 48 6 11 42 20 123 31 63 9 120 20 127 26 6 5 12 31 12 58 0 54 -15 69
-69 69 -49 0 -83 -19 -137 -76 -30 -31 -55 -50 -59 -44 -3 5 -15 10 -26 10
-29 0 -25 60 6 106 14 20 25 45 25 54 0 32 155 48 294 30z m1691 -11 c8 -24
-4 -69 -25 -96 -10 -13 -21 -48 -25 -80 -4 -37 -13 -62 -26 -72 -13 -11 -23
-38 -30 -81 -6 -35 -18 -78 -28 -95 -11 -17 -21 -58 -24 -98 -3 -42 -11 -75
-21 -86 -9 -10 -21 -43 -27 -73 -10 -48 -18 -61 -58 -94 -43 -37 -50 -39 -111
-39 l-65 0 0 60 0 60 40 5 c54 8 62 14 70 58 8 50 -7 114 -38 160 -14 20 -27
54 -30 76 -4 21 -13 46 -20 55 -8 9 -18 36 -22 61 -8 49 -30 100 -44 100 -5 0
-11 19 -15 43 -4 23 -14 62 -23 85 -21 55 -13 62 80 62 65 0 68 -1 77 -27 5
-16 17 -41 26 -58 9 -17 20 -71 24 -124 10 -111 25 -135 79 -125 39 8 61 49
61 116 0 24 9 63 20 87 11 24 20 53 20 65 0 52 10 65 54 68 70 5 76 4 81 -13z
m466 10 c57 -12 79 -32 115 -109 9 -19 25 -53 35 -75 24 -51 28 -210 5 -218
-8 -3 -21 -25 -28 -49 -15 -52 -62 -101 -111 -117 -20 -7 -41 -19 -45 -27 -6
-11 -28 -16 -78 -17 -58 -2 -74 2 -97 20 -15 12 -40 24 -56 28 -15 3 -47 25
-70 49 -40 41 -43 48 -52 123 -6 50 -7 114 -1 172 8 77 13 95 31 107 11 8 21
20 21 26 0 6 15 26 34 44 51 49 177 67 297 43z m414 -14 c25 -24 25 -26 25
-205 0 -202 9 -244 55 -256 60 -15 139 26 151 80 4 17 8 107 8 199 1 197 1
197 98 197 l58 0 0 -290 0 -290 -25 -6 c-14 -3 -38 -1 -53 4 -70 28 -205 21
-242 -13 -24 -22 -66 -18 -108 10 -20 14 -42 25 -49 25 -7 0 -13 6 -13 13 0 8
-11 36 -25 63 -27 53 -32 124 -27 355 l2 116 33 11 c55 17 86 14 112 -13z
m1150 -479 c7 -53 -3 -91 -29 -108 -6 -4 -30 -8 -52 -8 -40 0 -42 1 -48 38 -8
49 -8 117 1 125 3 4 32 7 64 7 l58 0 6 -54z"/>
<path d="M3219 18641 c-13 -10 -35 -22 -49 -26 -42 -13 -50 -25 -50 -80 0 -39
5 -56 20 -70 21 -19 36 -18 142 11 17 5 31 43 41 116 5 31 2 41 -16 53 -29 20
-59 19 -88 -4z"/>
<path d="M5345 18860 c-32 -13 -75 -64 -85 -101 -13 -43 -13 -150 -1 -182 6
-14 26 -41 46 -61 29 -29 43 -36 75 -36 21 0 50 5 64 11 23 11 56 62 56 87 0
5 7 23 15 38 19 36 19 58 1 92 -8 15 -17 44 -21 65 -5 27 -18 45 -48 67 -42
30 -66 35 -102 20z"/>
<path d="M6615 17483 c-11 -2 -40 -11 -65 -19 -25 -9 -85 -19 -133 -23 -63 -6
-96 -14 -115 -28 -15 -11 -49 -23 -77 -26 -37 -5 -55 -14 -68 -32 -10 -14 -28
-25 -38 -25 -23 0 -57 -16 -77 -37 -7 -7 -19 -13 -26 -13 -7 0 -21 -10 -32
-21 -10 -12 -38 -30 -61 -40 -24 -10 -43 -22 -43 -28 0 -5 -15 -12 -34 -15
-37 -7 -126 -70 -126 -89 0 -7 -8 -17 -18 -22 -77 -41 -123 -73 -128 -88 -7
-23 -118 -137 -133 -137 -6 0 -19 -17 -30 -37 -10 -21 -28 -47 -40 -57 -12
-11 -21 -24 -21 -30 0 -6 -9 -17 -20 -24 -12 -7 -22 -28 -26 -51 -4 -23 -16
-48 -30 -60 -13 -12 -24 -27 -24 -34 0 -7 -11 -28 -24 -46 -14 -19 -28 -46
-31 -62 -4 -16 -10 -29 -15 -29 -16 0 -40 -69 -40 -113 0 -30 -9 -63 -25 -93
-18 -34 -25 -63 -25 -103 0 -104 4 -101 -121 -101 l-109 0 0 93 c0 50 -3 220
-7 375 -5 226 -4 285 7 292 7 4 58 5 114 3 160 -9 146 -41 146 337 0 305 -1
320 -19 330 -13 7 -256 10 -720 10 -623 0 -701 -2 -715 -16 -14 -13 -16 -57
-16 -324 l0 -310 25 -16 c20 -13 44 -15 127 -11 57 2 118 2 136 -1 l32 -5 0
-804 c0 -780 -1 -805 -20 -848 -11 -23 -24 -82 -29 -129 -7 -61 -16 -95 -31
-113 -11 -14 -20 -39 -20 -55 0 -22 -10 -39 -37 -64 -66 -60 -84 -74 -93 -74
-5 0 -17 -11 -27 -24 -11 -13 -36 -29 -57 -35 -21 -5 -47 -18 -58 -28 -18 -16
-40 -18 -187 -18 -156 0 -168 1 -194 22 -15 12 -41 25 -57 28 -17 4 -30 11
-30 16 0 5 -16 17 -37 27 -20 9 -53 35 -74 57 -21 22 -47 49 -59 61 -11 12
-20 26 -20 31 0 6 -11 27 -25 47 -22 33 -27 54 -35 169 -6 73 -12 146 -15 162
-2 17 -7 305 -10 640 -3 336 -8 667 -11 737 -4 91 -2 137 7 162 14 40 8 38
143 41 64 2 82 6 93 21 10 14 13 84 13 316 0 285 -1 299 -20 318 -20 20 -33
20 -716 20 -460 0 -702 -4 -715 -10 -18 -10 -19 -24 -19 -324 0 -258 3 -316
14 -325 9 -8 57 -12 133 -12 65 0 139 -2 166 -5 l47 -6 0 -379 0 -379 -266 0
-267 0 -33 35 c-19 18 -34 37 -34 41 0 10 -76 84 -87 84 -5 0 -15 11 -21 25
-6 14 -18 25 -26 25 -8 0 -18 10 -21 23 -4 12 -17 33 -30 47 -13 14 -26 36
-30 49 -8 28 -61 84 -87 94 -10 4 -18 13 -18 21 0 9 -11 23 -25 32 -14 9 -25
22 -25 30 0 18 -69 64 -95 64 -27 0 -85 -75 -85 -111 0 -14 7 -32 14 -39 8 -6
20 -27 26 -46 6 -19 18 -34 26 -34 8 0 20 -11 26 -25 6 -13 19 -27 29 -30 13
-4 15 -12 10 -33 -6 -20 -17 -29 -50 -39 -23 -6 -56 -23 -72 -37 -17 -15 -37
-26 -45 -26 -8 0 -20 -12 -26 -27 -16 -37 -38 -63 -54 -63 -7 0 -24 10 -37 23
-81 74 -86 77 -140 77 -79 0 -97 -17 -97 -91 0 -71 10 -94 45 -103 15 -4 40
-21 57 -38 35 -36 26 -48 -35 -48 -40 0 -85 -19 -106 -43 -17 -21 -17 -117 0
-144 17 -29 49 -40 127 -46 35 -3 66 -8 69 -11 11 -10 -53 -56 -87 -62 -58
-11 -70 -28 -70 -104 0 -52 5 -73 20 -92 27 -36 75 -43 110 -18 15 11 35 20
43 20 9 0 29 11 45 25 45 37 86 34 128 -12 19 -20 34 -41 34 -45 0 -5 14 -14
30 -19 17 -6 30 -14 30 -19 0 -20 70 -34 176 -34 99 -1 116 2 141 20 15 11 45
26 65 33 20 7 43 23 52 36 8 13 24 26 35 30 11 3 25 21 30 38 6 18 20 40 30
49 10 9 23 23 28 32 8 15 39 17 273 17 144 -1 266 -3 269 -7 3 -3 8 -182 11
-398 5 -368 6 -394 25 -421 11 -18 22 -57 26 -95 5 -47 12 -68 27 -81 11 -9
24 -33 27 -53 4 -20 16 -42 26 -49 10 -7 22 -33 28 -56 5 -24 19 -52 30 -62
12 -11 21 -24 21 -29 0 -5 11 -12 25 -16 15 -4 28 -16 31 -29 5 -20 49 -65
145 -152 8 -7 29 -28 48 -47 22 -22 48 -36 72 -40 21 -3 49 -17 63 -31 14 -14
34 -25 46 -25 11 0 28 -9 38 -20 9 -11 35 -25 57 -31 22 -5 60 -18 85 -29 25
-10 81 -21 125 -25 44 -4 86 -12 93 -17 38 -32 582 -35 657 -5 22 9 85 20 141
26 68 6 113 16 140 30 21 12 44 21 51 21 7 0 20 11 28 24 11 16 28 25 56 29
23 3 51 14 62 25 12 11 40 25 62 31 22 6 58 27 80 47 114 103 165 156 171 178
4 16 19 29 45 39 28 11 43 25 56 54 10 21 26 44 36 51 9 7 17 19 17 27 0 8 9
19 21 25 11 7 27 26 34 43 8 18 23 46 35 62 12 18 20 46 20 70 0 23 9 55 22
75 15 25 24 62 30 130 6 61 14 100 24 112 24 25 33 135 34 390 0 125 3 229 8
231 4 3 41 2 83 0 88 -6 98 -15 111 -103 4 -30 12 -77 17 -105 6 -27 10 -77
11 -110 0 -41 8 -76 23 -110 13 -28 26 -79 30 -115 4 -47 11 -69 25 -80 10 -9
22 -27 25 -42 4 -15 18 -40 32 -56 14 -17 25 -37 25 -45 0 -8 9 -26 20 -40 12
-14 26 -41 32 -59 10 -29 72 -113 143 -191 14 -15 25 -32 25 -37 0 -5 9 -12
21 -15 25 -8 76 -60 84 -86 4 -11 11 -19 16 -19 5 0 19 -11 31 -25 12 -14 39
-30 60 -36 21 -5 38 -14 38 -19 0 -17 72 -90 89 -90 9 0 22 -9 29 -20 7 -11
18 -20 26 -20 7 0 30 -13 51 -30 21 -16 46 -30 55 -30 10 0 25 -11 34 -24 11
-18 29 -27 61 -31 25 -4 45 -11 45 -17 0 -13 64 -38 98 -38 17 0 40 -10 56
-25 15 -14 35 -25 44 -25 9 0 37 -10 62 -21 33 -15 88 -24 200 -34 85 -8 179
-19 209 -25 77 -14 190 -12 247 5 27 8 87 15 134 15 112 1 225 16 264 35 17 9
53 21 80 26 28 5 59 18 71 29 15 14 35 20 67 20 30 0 54 7 69 19 l24 19 3 519
c2 285 0 533 -3 550 -3 18 -15 37 -25 43 -16 9 -27 3 -65 -33 -25 -24 -45 -47
-45 -51 0 -8 -67 -76 -76 -76 -3 0 -19 -11 -36 -25 -16 -14 -36 -25 -43 -25
-7 0 -26 -11 -42 -24 -15 -13 -45 -26 -65 -30 -21 -4 -43 -15 -50 -24 -7 -10
-39 -23 -70 -29 -32 -7 -75 -20 -95 -30 -54 -25 -325 -26 -363 -1 -14 9 -52
21 -85 27 -33 6 -62 16 -63 21 -5 14 -57 40 -80 40 -10 0 -27 9 -37 20 -10 11
-34 23 -54 26 -29 6 -57 28 -138 111 -56 57 -111 124 -123 149 -12 24 -25 44
-29 44 -4 0 -13 18 -20 39 -6 21 -17 41 -25 44 -7 3 -19 29 -26 59 -6 29 -21
75 -31 101 -19 45 -20 68 -17 260 2 178 6 216 20 237 9 14 20 42 23 62 4 20
18 51 31 69 13 18 24 40 24 49 0 9 11 27 24 40 14 12 28 35 31 51 6 28 165
199 185 199 5 0 21 11 37 24 16 14 42 28 57 32 15 3 34 17 43 30 10 16 25 24
43 24 16 0 41 10 57 23 26 21 43 24 213 34 112 7 213 8 255 3 39 -5 93 -9 121
-9 35 -1 59 -7 76 -21 14 -10 44 -24 67 -29 24 -5 48 -16 54 -25 14 -19 117
-86 132 -86 15 0 63 -54 75 -84 5 -14 14 -26 19 -26 6 0 21 -11 35 -25 30 -30
47 -31 70 -6 15 17 16 63 14 545 l-3 528 -32 28 c-23 21 -46 30 -90 36 -32 4
-75 16 -95 26 -24 13 -72 23 -132 28 -52 4 -100 11 -106 15 -42 26 -138 34
-385 33 -143 0 -269 -2 -280 -5z m-5437 -1493 c18 -16 38 -30 47 -30 8 0 19
-17 26 -42 6 -24 19 -57 30 -74 23 -38 27 -155 6 -173 -8 -6 -20 -29 -27 -51
-8 -24 -21 -42 -34 -46 -11 -4 -41 -29 -66 -55 -42 -45 -50 -49 -93 -49 -32 0
-49 5 -53 14 -3 8 -18 20 -34 26 -16 7 -50 36 -75 65 l-45 53 0 137 0 136 34
34 c18 19 38 35 44 35 6 0 17 8 24 19 17 23 36 28 119 30 60 1 69 -2 97 -29z"/>
<path d="M1040 15941 c-29 -5 -40 -15 -68 -64 -30 -50 -35 -67 -36 -126 0 -71
-1 -68 65 -148 16 -20 136 -20 156 0 16 17 53 131 53 164 0 15 -7 37 -15 47
-8 11 -15 28 -15 38 0 31 -28 76 -52 83 -40 11 -52 12 -88 6z"/>
<path d="M9318 17430 c-29 -17 -56 -73 -64 -129 -4 -33 -16 -63 -30 -81 -13
-15 -27 -43 -31 -62 -3 -18 -14 -44 -25 -57 -10 -13 -21 -42 -25 -63 -3 -22
-16 -52 -28 -66 -12 -15 -25 -42 -29 -61 -3 -19 -13 -42 -22 -52 -8 -9 -20
-48 -26 -85 -6 -38 -17 -76 -23 -84 -7 -8 -19 -35 -26 -60 -7 -25 -18 -49 -24
-55 -20 -17 -32 -48 -39 -97 -4 -26 -14 -51 -22 -56 -17 -9 -33 -69 -34 -120
0 -19 -9 -42 -20 -54 -11 -12 -23 -43 -26 -70 -4 -29 -15 -57 -29 -72 -13 -14
-26 -38 -30 -55 -3 -16 -13 -35 -20 -41 -8 -6 -19 -36 -26 -66 -7 -30 -16 -54
-21 -54 -12 0 -38 -64 -38 -93 0 -14 -10 -37 -22 -52 -14 -19 -25 -50 -30 -93
-5 -42 -14 -73 -27 -86 -11 -12 -23 -43 -27 -71 -4 -29 -17 -62 -30 -78 -13
-16 -24 -36 -24 -45 0 -9 -9 -32 -21 -51 -11 -19 -25 -61 -30 -94 -6 -33 -18
-71 -29 -84 -10 -13 -21 -41 -25 -63 -4 -22 -11 -40 -16 -40 -13 0 -39 -63
-39 -93 0 -14 -10 -37 -22 -52 -14 -19 -25 -50 -30 -93 -5 -43 -14 -73 -27
-86 -11 -12 -23 -43 -27 -73 -3 -29 -10 -53 -13 -53 -12 0 -38 -54 -45 -92 -4
-21 -10 -38 -15 -38 -11 0 -31 -47 -31 -75 0 -13 -11 -36 -24 -50 -14 -15 -28
-41 -32 -58 -3 -17 -15 -43 -25 -57 -11 -14 -23 -53 -27 -91 -5 -43 -16 -75
-30 -94 -29 -36 -30 -97 -2 -125 19 -19 33 -20 475 -20 l456 0 24 25 c14 13
25 30 25 36 0 7 9 22 20 34 12 12 24 40 27 61 3 21 15 50 25 64 10 14 21 50
25 80 3 32 13 64 24 75 10 11 23 41 28 67 6 26 22 63 36 84 14 20 25 42 25 49
0 12 65 33 105 34 867 16 1071 16 1100 1 16 -9 31 -25 33 -36 2 -10 14 -41 27
-69 13 -27 26 -67 30 -89 4 -25 12 -40 25 -43 13 -3 20 -18 25 -51 3 -26 15
-62 26 -81 11 -18 22 -54 25 -80 9 -76 12 -84 48 -123 l35 -38 465 0 c453 0
467 1 486 20 11 11 20 32 20 48 0 37 -19 104 -35 122 -7 8 -16 37 -20 63 -4
27 -17 60 -29 75 -12 15 -28 46 -34 68 -7 23 -19 47 -27 54 -8 7 -15 25 -15
41 0 39 -17 79 -33 79 -10 0 -19 21 -26 63 -7 34 -19 72 -27 85 -8 12 -19 48
-25 80 -6 31 -19 69 -30 84 -10 15 -19 34 -19 43 0 21 -20 58 -36 68 -7 4 -16
24 -19 45 -13 79 -17 93 -31 107 -8 8 -19 39 -24 69 -9 58 -25 96 -39 96 -5 0
-11 21 -14 46 -3 26 -13 54 -25 67 -12 12 -26 44 -32 71 -6 27 -20 60 -30 74
-11 13 -20 38 -20 54 0 17 -10 39 -24 53 -16 16 -27 41 -31 72 -4 27 -16 61
-27 76 -11 16 -24 56 -28 89 -5 33 -16 68 -25 78 -9 10 -18 35 -21 56 -10 72
-14 84 -39 106 -17 15 -25 32 -25 54 0 20 -8 41 -19 51 -13 12 -24 43 -31 86
-6 37 -19 82 -30 100 -11 17 -20 43 -20 56 0 13 -11 39 -25 57 -13 17 -27 51
-31 74 -4 24 -15 51 -26 62 -12 12 -22 42 -27 87 -5 37 -18 86 -30 107 -11 21
-23 51 -26 67 -3 15 -14 36 -25 47 -11 11 -23 38 -26 61 -4 23 -15 50 -24 59
-10 10 -20 38 -24 64 -4 25 -18 58 -31 74 -12 15 -28 46 -34 69 -7 23 -18 46
-25 50 -7 5 -16 36 -20 73 -3 37 -13 71 -21 80 -14 13 -81 15 -503 17 -308 2
-493 -1 -504 -7z m512 -1234 c0 -29 19 -86 35 -106 7 -8 16 -45 20 -82 3 -37
15 -84 26 -104 10 -21 22 -60 25 -87 4 -28 16 -60 29 -76 13 -15 26 -48 30
-74 4 -26 16 -58 26 -71 11 -13 19 -33 19 -44 0 -11 14 -46 30 -77 17 -31 30
-69 30 -84 0 -14 12 -48 25 -76 l25 -50 -23 -6 c-17 -4 -594 -5 -644 0 -8 1
-9 9 -3 29 4 15 11 54 15 87 3 32 12 66 20 75 8 9 19 40 26 70 6 30 20 64 30
75 10 12 22 36 25 55 4 19 17 53 29 75 13 22 25 59 29 83 3 23 15 51 25 61 11
11 23 41 27 68 3 26 12 55 19 63 17 20 35 87 35 132 0 25 8 46 26 67 28 34 44
33 44 -3z"/>
<path d="M12030 17420 c-20 -20 -20 -29 -18 -1761 3 -1723 3 -1741 23 -1755
17 -12 86 -14 443 -12 l424 3 24 28 24 28 0 1005 c0 915 1 1004 16 1004 18 0
47 -34 80 -94 12 -22 30 -56 40 -73 10 -18 26 -35 36 -39 10 -3 18 -12 18 -19
0 -8 11 -22 25 -31 14 -9 25 -22 25 -29 0 -19 77 -114 183 -227 15 -16 27 -34
27 -39 0 -5 11 -19 25 -30 13 -12 27 -35 30 -51 4 -16 17 -36 30 -44 14 -9 27
-24 30 -34 3 -11 15 -22 26 -25 10 -4 19 -12 19 -19 0 -15 100 -149 141 -189
16 -15 29 -33 29 -38 0 -14 66 -95 112 -137 20 -18 39 -46 43 -61 6 -27 76
-101 95 -101 6 0 10 -8 10 -19 0 -10 11 -30 25 -45 14 -15 25 -34 25 -42 0 -8
11 -26 25 -40 14 -14 25 -30 25 -36 0 -6 26 -37 58 -68 31 -31 68 -71 82 -90
14 -18 35 -44 47 -57 13 -13 28 -33 34 -46 7 -12 20 -28 31 -35 10 -7 18 -19
18 -27 0 -7 11 -22 24 -32 13 -10 31 -33 40 -51 9 -18 20 -32 25 -32 5 0 14
-13 19 -29 11 -32 31 -58 80 -108 l34 -33 443 0 c421 0 444 1 466 19 l24 19 0
1742 c0 1712 0 1742 -19 1756 -16 12 -94 14 -451 14 -373 0 -433 -2 -453 -16
l-22 -15 0 -1027 0 -1026 -35 34 c-19 19 -35 40 -35 46 0 7 -8 19 -19 26 -10
7 -25 27 -34 43 -9 17 -33 46 -53 65 -20 19 -43 51 -51 70 -15 36 -75 100 -93
100 -6 0 -10 6 -10 13 0 7 -17 35 -37 62 -36 48 -47 60 -100 121 -13 14 -23
29 -23 33 0 4 -12 22 -27 39 -54 60 -83 100 -83 111 0 6 -11 18 -24 26 -13 9
-27 27 -30 40 -3 13 -15 27 -26 30 -11 3 -20 14 -20 24 0 10 -9 26 -21 37 -12
10 -28 32 -37 49 -8 16 -39 55 -69 85 -74 75 -79 81 -88 110 -4 14 -29 48 -56
75 -86 90 -97 104 -110 142 -6 21 -35 61 -63 89 -28 29 -60 64 -71 79 -32 43
-102 115 -113 115 -5 0 -12 15 -15 34 -5 34 -73 116 -96 116 -6 0 -11 5 -11
10 0 6 -11 22 -24 35 -13 13 -27 38 -31 55 -4 18 -18 41 -31 53 -13 11 -24 26
-24 33 0 8 -9 18 -20 24 -11 6 -31 22 -44 35 l-25 25 -436 0 c-422 0 -436 -1
-455 -20z"/>
<path d="M6320 15989 c-33 -13 -108 -98 -115 -131 -4 -15 -13 -32 -21 -39 -25
-21 -18 -119 13 -181 36 -71 49 -85 92 -99 20 -7 39 -16 42 -21 18 -28 178
-30 209 -2 8 7 28 16 43 20 16 3 31 14 35 23 3 9 14 23 24 31 9 8 24 33 32 55
7 22 20 54 27 72 12 29 11 34 -9 56 -13 14 -22 36 -22 54 0 19 -10 43 -25 61
-14 17 -25 34 -25 39 0 5 -19 23 -42 41 -40 31 -44 32 -137 31 -53 0 -107 -5
-121 -10z"/>
<path d="M7242 15990 c-12 -5 -25 -16 -28 -25 -4 -8 -12 -15 -19 -15 -6 0 -19
-17 -29 -37 -9 -21 -23 -49 -31 -63 -10 -16 -15 -53 -15 -106 0 -67 4 -86 20
-107 12 -14 25 -40 31 -56 9 -24 20 -33 52 -43 23 -6 51 -18 62 -25 26 -17
143 -17 164 0 9 8 34 19 56 25 24 7 57 28 80 52 l40 41 0 97 c0 92 -2 100 -33
155 -19 31 -39 57 -45 57 -6 0 -24 12 -40 28 -27 26 -34 27 -135 29 -59 2
-117 -2 -130 -7z"/>
<path d="M5008 13550 c-64 -15 -128 -59 -128 -86 0 -6 -11 -23 -25 -38 -24
-26 -25 -33 -25 -139 0 -92 4 -120 19 -151 11 -21 23 -51 26 -66 7 -34 50 -79
79 -84 102 -19 125 -21 151 -14 17 4 46 10 66 13 20 3 49 17 63 30 15 14 31
25 36 25 5 0 11 14 15 30 4 17 8 30 10 30 15 0 55 -25 55 -34 0 -11 43 -55 69
-71 27 -16 89 -22 146 -14 51 7 62 13 96 50 45 50 52 79 47 190 -3 66 -7 84
-23 97 -11 10 -28 29 -38 45 -9 15 -25 27 -35 27 -9 0 -36 7 -59 15 -39 13
-48 13 -106 -5 -70 -22 -82 -31 -92 -72 -4 -15 -14 -33 -22 -39 -8 -7 -20 -27
-27 -44 -12 -28 -18 -31 -44 -27 -21 3 -35 -1 -46 -14 -8 -11 -31 -39 -50 -62
-20 -24 -36 -48 -36 -52 0 -4 -13 -12 -28 -18 -30 -10 -82 8 -82 29 0 5 -11
14 -25 19 -14 5 -27 15 -29 22 -39 124 -43 144 -31 163 7 11 18 37 24 57 11
34 17 38 65 49 69 15 120 5 158 -32 24 -22 40 -29 72 -29 102 0 80 84 -43 166
-67 44 -123 54 -203 34z m536 -260 c21 0 39 -68 31 -118 -11 -80 -16 -90 -42
-97 -20 -5 -31 1 -59 32 -29 31 -34 44 -34 84 0 41 5 52 33 79 17 16 38 28 45
25 8 -3 19 -5 26 -5z"/>
<path d="M1967 13550 c-61 -11 -104 -53 -148 -145 -29 -62 -31 -73 -27 -151 3
-57 9 -89 20 -101 9 -10 19 -36 23 -59 5 -30 17 -51 47 -79 l41 -37 118 4 118
4 36 37 c43 44 58 87 49 139 -10 63 -56 76 -84 23 -7 -14 -17 -25 -21 -25 -5
0 -18 -18 -29 -40 -12 -23 -31 -45 -43 -49 -28 -11 -75 6 -82 29 -3 10 -18 31
-32 46 -25 27 -27 35 -28 120 0 103 6 117 71 144 39 17 44 17 92 1 28 -9 57
-24 64 -33 7 -10 27 -20 44 -24 24 -5 36 -1 52 16 18 20 19 23 4 53 -8 18 -35
52 -59 76 -58 58 -110 70 -226 51z"/>
<path d="M4304 13536 c-53 -24 -64 -50 -64 -149 0 -95 -2 -100 -76 -178 -8 -9
-18 -41 -21 -71 -5 -48 -2 -57 21 -85 14 -17 26 -35 26 -41 0 -22 62 -29 214
-26 107 2 163 7 173 16 17 14 11 80 -12 114 -7 12 -15 41 -17 65 -3 38 -7 46
-34 59 -51 25 -80 50 -68 58 6 4 16 16 21 27 62 123 -46 264 -163 211z m59
-379 c18 -20 27 -40 27 -63 0 -31 -3 -34 -29 -34 -15 0 -40 9 -55 21 -22 17
-26 29 -26 68 0 47 1 48 28 43 15 -3 39 -19 55 -35z"/>
<path d="M9205 13541 c-32 -14 -53 -43 -64 -90 -5 -23 -18 -53 -29 -64 -11
-12 -23 -38 -27 -57 -4 -19 -14 -42 -22 -51 -8 -9 -19 -48 -25 -85 -6 -40 -19
-78 -29 -90 -21 -23 -25 -84 -7 -102 15 -15 53 -16 78 -2 10 5 24 27 30 47 7
21 18 48 26 60 17 27 82 46 128 38 31 -6 34 -11 45 -60 15 -67 59 -111 100
-100 31 8 38 8 168 -1 123 -8 158 -2 203 37 33 28 35 33 33 85 -1 43 -8 64
-28 90 -14 19 -33 34 -41 34 -21 0 -17 16 11 38 29 23 32 50 10 92 -20 39 -45
44 -154 32 -80 -8 -92 -12 -115 -38 -32 -37 -35 -100 -6 -137 11 -14 20 -30
20 -35 0 -28 33 -42 95 -42 35 0 66 -3 68 -8 3 -4 3 -19 0 -35 -5 -23 -10 -27
-37 -27 -22 0 -40 8 -56 25 -18 19 -34 25 -78 27 l-56 3 -8 40 c-5 21 -17 49
-28 60 -11 12 -20 28 -20 37 0 8 -10 35 -23 59 -13 24 -29 69 -35 100 -9 38
-23 67 -46 92 -35 38 -46 42 -81 28z m45 -266 c0 -39 -14 -52 -35 -35 -20 17
-19 50 2 66 24 17 33 9 33 -31z"/>
<path d="M13100 13530 c-19 -19 -20 -33 -20 -259 0 -217 2 -241 18 -261 25
-30 60 -21 90 23 27 41 30 121 6 190 -9 26 -13 52 -11 59 3 8 6 6 6 -4 1 -12
9 -18 24 -18 15 0 29 -11 40 -30 10 -16 22 -30 27 -30 5 0 18 -19 30 -42 59
-121 109 -178 156 -178 17 0 42 8 55 18 22 19 22 22 23 259 1 224 0 242 -18
262 -25 28 -32 27 -68 -10 l-31 -30 7 -105 c4 -57 9 -111 12 -119 5 -11 -1
-15 -24 -15 -22 0 -31 6 -35 21 -3 11 -15 23 -26 26 -14 3 -22 17 -26 44 -5
26 -15 45 -31 56 -13 8 -24 21 -24 29 0 8 -9 19 -21 26 -11 7 -27 28 -36 47
-10 20 -29 39 -49 47 -44 18 -50 18 -74 -6z"/>
<path d="M15346 13521 c-10 -11 -19 -45 -23 -85 -6 -62 -14 -79 -28 -56 -3 6
-23 10 -43 10 -20 0 -53 4 -72 10 -29 8 -38 7 -54 -9 -17 -17 -19 -37 -20
-201 -1 -169 0 -183 18 -196 24 -17 28 -17 52 0 17 13 19 29 22 133 l4 118 49
30 c27 17 49 33 49 38 0 4 4 7 9 7 5 0 11 -67 13 -148 3 -164 9 -182 60 -182
35 0 78 39 78 72 0 13 5 30 10 38 8 12 10 10 10 -8 0 -27 17 -62 30 -62 5 0
20 -11 34 -25 20 -20 31 -24 58 -18 18 3 39 10 46 16 16 13 15 42 -2 56 -8 7
-17 24 -21 38 -3 15 -20 42 -36 60 -37 43 -39 86 -5 108 27 18 46 62 46 107 0
21 -6 31 -26 38 -22 9 -32 5 -69 -26 -24 -20 -47 -45 -51 -56 -11 -36 -22 -5
-26 74 -4 84 -17 109 -68 127 -23 7 -31 6 -44 -8z"/>
<path d="M14009 13473 c-18 -22 -15 -403 4 -442 19 -39 59 -58 92 -43 28 13
28 13 21 88 -4 41 -15 93 -25 117 l-18 42 28 45 28 44 7 -29 c4 -16 18 -44 31
-63 12 -19 23 -40 23 -47 0 -7 11 -38 25 -69 14 -31 25 -65 25 -76 0 -31 37
-62 63 -54 47 14 75 61 82 137 l7 71 18 -35 c10 -19 26 -59 36 -89 22 -72 30
-80 70 -80 39 0 70 26 80 65 6 23 4 45 -8 130 -2 14 3 21 20 23 31 5 45 37 44
106 -1 72 -18 95 -59 80 -27 -9 -28 -12 -31 -87 -3 -72 -4 -77 -25 -77 -33 0
-47 19 -47 61 0 58 -14 83 -59 104 -39 17 -42 17 -61 0 -11 -10 -22 -33 -26
-51 -7 -36 -47 -98 -57 -87 -4 3 -7 27 -7 53 0 25 -6 53 -12 62 -16 20 -82 30
-114 18 -22 -9 -26 -7 -35 19 -10 28 -73 81 -96 81 -6 0 -17 -8 -24 -17z"/>
<path d="M12707 13443 c-46 -48 -53 -100 -18 -137 22 -23 24 -35 27 -150 1
-69 5 -134 9 -145 6 -20 32 -31 76 -31 45 0 53 20 44 113 -9 87 -9 101 1 243
l6 92 -34 26 c-47 35 -67 33 -111 -11z"/>
<path d="M7135 13450 c-16 -18 -18 -38 -16 -178 2 -175 5 -192 34 -242 25 -42
35 -50 63 -50 42 0 48 22 34 122 -10 73 -10 109 0 182 16 112 8 144 -41 168
-44 22 -52 22 -74 -2z"/>
<path d="M2745 13398 c-16 -12 -33 -27 -37 -33 -5 -5 -7 -86 -5 -180 l2 -170
38 -19 c30 -14 44 -16 61 -8 21 9 23 19 30 128 5 95 10 122 25 139 10 11 22
30 25 42 4 11 13 24 21 27 25 9 17 33 -22 65 -46 38 -94 41 -138 9z"/>
<path d="M3509 13408 c-13 -4 -44 -11 -68 -15 -28 -5 -48 -15 -55 -28 -6 -11
-19 -26 -28 -33 -10 -7 -20 -29 -23 -50 -14 -88 -17 -90 -31 -19 -7 37 -22 80
-33 96 -18 25 -30 29 -109 41 -85 12 -89 12 -137 -11 -40 -20 -52 -32 -64 -64
-8 -22 -23 -46 -33 -53 -31 -23 -19 -182 14 -182 4 0 8 -5 8 -11 0 -6 7 -26
16 -45 21 -44 55 -53 179 -51 l100 2 24 48 c23 45 24 49 9 75 -16 27 -16 28
12 44 33 19 32 19 44 -52 4 -21 22 -52 46 -79 l40 -43 110 4 c158 5 155 2 155
208 0 115 -3 162 -13 172 -21 21 -136 54 -163 46z m-365 -117 c3 -4 -5 -13
-19 -19 -18 -8 -26 -8 -34 2 -6 7 -8 16 -4 19 9 10 51 9 57 -2z m396 -6 c0
-10 -10 -15 -30 -15 -20 0 -30 5 -30 15 0 10 10 15 30 15 20 0 30 -5 30 -15z
m-368 -170 c-4 -25 -20 -41 -49 -49 -16 -5 -28 0 -47 21 -42 45 -35 54 37 51
56 -3 62 -5 59 -23z m398 20 c0 -4 -7 -20 -16 -36 -13 -25 -20 -30 -47 -27
-28 3 -32 7 -35 36 l-3 32 50 0 c28 0 51 -2 51 -5z"/>
<path d="M5773 13400 l-43 -19 0 -185 c0 -154 3 -187 16 -200 44 -44 74 -2 74
101 0 74 3 87 33 136 61 104 99 78 111 -76 9 -106 18 -135 48 -146 44 -17 55
8 63 140 7 124 16 149 54 149 24 0 31 -42 31 -187 0 -124 5 -133 67 -133 61 0
68 15 71 162 4 150 -7 199 -50 231 -25 19 -46 21 -190 24 -90 2 -179 8 -198
13 -42 12 -36 13 -87 -10z"/>
<path d="M7870 13409 c-19 -5 -56 -11 -82 -14 -77 -10 -78 -13 -78 -200 0
-140 2 -166 18 -184 17 -21 18 -21 52 -4 43 22 50 61 24 128 -16 42 -16 46 2
74 11 16 38 43 60 59 l41 30 24 -56 c15 -38 24 -82 26 -131 4 -85 19 -125 50
-129 44 -6 53 29 52 193 -1 82 -4 161 -8 175 -11 39 -118 74 -181 59z"/>
<path d="M10012 13409 c-13 -5 -51 -13 -85 -19 -71 -11 -87 -26 -87 -81 0 -39
17 -89 31 -89 4 0 10 -13 14 -29 9 -40 21 -48 84 -53 30 -3 57 -11 62 -19 16
-26 9 -47 -21 -62 -29 -15 -30 -15 -50 18 -46 74 -150 50 -121 -27 16 -43 60
-71 101 -64 49 9 58 9 118 1 47 -7 55 -5 79 16 14 13 33 41 43 62 l17 38 7
-31 c3 -20 13 -34 26 -37 10 -3 22 -14 25 -24 9 -26 37 -31 144 -27 88 4 92 5
126 38 l36 35 -3 130 c-3 122 -5 133 -28 162 -33 42 -40 44 -147 50 l-92 6
-45 -47 c-25 -25 -46 -55 -46 -66 0 -11 -7 -20 -15 -20 -9 0 -15 -9 -15 -24 0
-14 -5 -37 -11 -53 l-11 -28 -15 34 c-16 39 -11 61 17 68 11 3 20 12 20 20 0
25 -40 94 -58 99 -9 3 -30 11 -47 18 -19 9 -38 10 -53 5z m-2 -120 c0 -11 -27
-12 -34 0 -3 4 -3 11 0 14 8 8 34 -3 34 -14z m399 -5 c2 -2 -10 -4 -27 -4 -18
0 -32 5 -32 10 0 9 47 4 59 -6z m24 -151 c2 -5 -2 -23 -9 -40 -11 -27 -20 -33
-44 -33 -25 0 -32 6 -45 36 -8 20 -15 38 -15 40 0 8 109 4 113 -3z"/>
<path d="M11690 13408 c-19 -6 -106 -11 -193 -12 -180 -1 -176 1 -178 -86 -1
-30 -4 -89 -6 -130 -5 -109 -4 -115 6 -143 14 -36 43 -50 67 -33 15 12 19 31
22 117 4 132 7 145 38 165 24 16 26 16 54 -11 29 -28 30 -31 30 -130 0 -108
13 -145 50 -145 31 0 43 38 48 147 4 96 6 103 33 129 l29 28 30 -35 c29 -33
29 -36 30 -150 0 -118 6 -139 41 -139 44 0 49 22 49 203 0 95 -4 177 -8 183
-7 10 -94 55 -103 53 -2 -1 -20 -6 -39 -11z"/>
<path d="M2500 13404 c-8 -2 -45 -6 -83 -9 -38 -4 -74 -13 -82 -22 -17 -16
-21 -113 -6 -128 5 -6 3 -32 -6 -65 -18 -70 -13 -168 10 -185 11 -8 61 -12
147 -13 121 -1 132 1 156 21 l26 22 -21 60 c-17 47 -21 83 -21 177 0 102 -2
118 -17 126 -21 11 -81 20 -103 16z m-10 -114 c0 -5 -5 -12 -11 -16 -14 -8
-33 11 -25 25 7 11 36 4 36 -9z m5 -177 c-10 -41 -25 -56 -41 -42 -15 12 -19
51 -7 62 3 4 17 7 31 7 21 0 23 -3 17 -27z"/>
<path d="M3783 13398 c-12 -6 -25 -18 -28 -27 -12 -28 -5 -324 8 -351 15 -31
48 -37 69 -13 12 13 17 44 20 115 3 84 6 100 26 120 12 14 22 29 22 35 0 6 11
18 25 27 25 16 32 49 17 74 -18 28 -117 41 -159 20z"/>
<path d="M8185 13395 c-23 -7 -45 -21 -51 -34 -6 -12 -22 -33 -35 -47 -22 -24
-24 -34 -24 -129 l0 -104 43 -44 c51 -52 81 -60 184 -48 55 6 73 12 98 36 35
34 39 68 9 89 -24 17 -70 6 -105 -25 -25 -24 -33 -23 -64 2 -21 18 -25 31 -28
88 l-4 68 37 22 c32 19 40 20 54 8 28 -24 80 -40 111 -33 26 5 32 2 45 -27 17
-35 56 -93 80 -118 25 -26 19 -95 -10 -125 -14 -14 -25 -30 -25 -36 0 -5 -11
-23 -25 -40 -32 -38 -21 -64 33 -73 71 -12 125 29 137 105 4 24 16 56 26 70
10 14 22 52 25 84 5 36 14 66 25 77 10 10 21 31 25 46 4 16 15 37 25 49 10 11
22 40 25 65 7 51 -4 66 -60 79 -49 11 -76 -15 -76 -73 0 -42 -45 -132 -61
-122 -3 3 -9 27 -13 54 -5 40 -15 58 -45 90 -22 23 -41 41 -43 41 -2 0 -17 -4
-34 -9 -19 -5 -56 -4 -100 4 -116 21 -137 22 -179 10z"/>
<path d="M11059 13401 c-43 -4 -84 -13 -93 -20 -25 -21 -22 -156 4 -198 20
-34 37 -41 110 -45 38 -3 45 -7 51 -28 9 -37 -16 -62 -47 -48 -13 6 -31 22
-39 35 -12 18 -24 23 -60 23 -39 0 -47 4 -55 24 -5 14 -18 30 -30 36 -11 6
-20 17 -20 26 0 8 -7 17 -15 20 -12 5 -11 11 7 34 17 23 19 36 14 75 -9 60
-31 69 -147 61 -105 -7 -136 -18 -149 -51 -15 -41 -12 -112 5 -127 9 -7 21
-19 28 -26 7 -7 20 -22 30 -33 11 -13 30 -19 57 -19 33 0 42 -4 54 -29 9 -16
12 -31 9 -35 -13 -12 -47 -5 -68 14 -44 41 -124 43 -126 3 -6 -91 15 -107 145
-111 81 -3 110 0 135 12 17 9 31 21 31 26 0 21 46 14 71 -11 25 -27 27 -27
142 -25 151 3 152 3 151 126 -1 70 -5 94 -18 108 -15 17 -15 22 -1 48 16 31
20 81 7 101 -7 12 -88 45 -101 41 -3 0 -40 -4 -82 -7z m66 -101 c28 -11 25
-30 -4 -30 -21 0 -44 23 -34 33 8 9 7 9 38 -3z"/>
<path d="M12008 13396 c-73 -17 -84 -27 -97 -84 -5 -26 -17 -61 -25 -77 -24
-45 -20 -103 10 -160 46 -88 49 -90 176 -91 140 -1 153 8 146 94 -4 41 0 67
13 97 23 51 23 66 0 118 -10 23 -21 51 -23 62 -8 44 -103 63 -200 41z m124
-262 c3 -3 1 -18 -5 -34 -8 -20 -19 -29 -39 -32 -31 -5 -48 13 -48 51 0 18 6
21 43 21 24 0 46 -3 49 -6z"/>
<path d="M12346 13400 c-64 -12 -68 -23 -64 -211 3 -177 10 -203 52 -197 27 4
46 43 46 98 0 42 40 174 57 191 5 5 19 10 33 11 22 3 25 -2 32 -47 13 -82 51
-239 61 -252 14 -20 55 -15 67 6 15 29 13 320 -3 351 -7 15 -28 30 -52 38 -46
16 -171 22 -229 12z"/>
<path d="M6335 13386 c-15 -11 -17 -37 -18 -252 -2 -221 0 -241 18 -268 l19
-28 25 30 c15 16 39 48 55 71 30 41 30 41 93 41 60 0 65 2 103 40 l40 40 0
134 c0 142 -7 179 -37 191 -35 14 -279 15 -298 1z m216 -113 c26 -25 29 -35
29 -88 0 -53 -4 -64 -31 -93 -19 -20 -37 -31 -46 -28 -8 3 -21 6 -29 6 -8 0
-14 7 -14 15 0 9 -11 33 -25 55 -14 22 -25 45 -25 51 0 7 11 27 25 45 14 18
25 37 25 42 0 6 6 13 13 15 27 12 50 6 78 -20z"/>
<path d="M6793 13394 c-29 -7 -53 -41 -53 -75 0 -14 -10 -39 -22 -55 -30 -37
-31 -129 -2 -171 10 -15 23 -41 29 -58 5 -16 21 -35 35 -42 30 -15 213 -18
240 -3 24 13 38 95 21 122 -10 16 -8 22 10 37 35 28 38 117 8 181 -13 27 -30
52 -39 56 -20 8 -199 14 -227 8z m157 -110 c0 -2 -16 -4 -36 -4 -19 0 -33 4
-30 8 5 8 66 4 66 -4z m35 -154 c3 -5 1 -10 -5 -10 -6 0 -16 -11 -22 -25 -16
-36 -65 -34 -101 3 -15 15 -27 31 -27 35 0 11 148 8 155 -3z"/>
<path d="M7415 13394 c-61 -17 -124 -133 -112 -206 35 -205 43 -212 208 -202
l99 7 25 44 c19 34 22 49 15 68 -6 17 -5 33 5 52 8 15 15 45 15 65 0 43 -47
155 -69 163 -22 9 -163 15 -186 9z m82 -110 c-3 -3 -12 -4 -19 -1 -8 3 -5 6 6
6 11 1 17 -2 13 -5z m55 -174 c-5 -34 -20 -50 -48 -50 -17 0 -28 8 -34 26 -19
49 -14 55 38 52 44 -3 47 -5 44 -28z"/>
<path d="M13694 13394 c-5 -1 -21 -5 -36 -8 -23 -5 -30 -14 -39 -51 -6 -25
-15 -45 -19 -45 -19 0 -32 -64 -28 -133 4 -57 11 -80 31 -111 15 -21 27 -42
27 -47 0 -16 45 -20 151 -13 101 6 112 9 126 31 10 14 15 43 14 75 0 35 6 63
19 85 24 40 26 86 5 103 -8 7 -20 30 -25 51 -6 21 -18 43 -28 48 -16 8 -176
20 -198 15z m86 -108 c0 -11 -19 -15 -25 -6 -3 5 1 10 9 10 9 0 16 -2 16 -4z
m50 -158 c0 -19 -42 -58 -63 -58 -26 0 -57 28 -57 52 0 15 8 18 60 18 40 0 60
-4 60 -12z"/>
<path d="M14805 13393 c-11 -2 -30 -6 -42 -8 -12 -3 -25 -14 -28 -25 -4 -12
-18 -32 -32 -46 -24 -25 -25 -28 -21 -140 l3 -114 43 -40 c38 -36 47 -40 95
-40 72 1 139 15 151 33 6 8 21 17 33 21 14 4 24 18 29 38 3 18 15 39 25 47 12
10 20 29 20 51 1 39 -16 90 -30 90 -5 0 -12 13 -16 29 -3 16 -17 37 -31 45
-13 9 -24 23 -24 31 0 25 -106 43 -175 28z m85 -107 c0 -8 11 -27 25 -42 30
-32 34 -94 9 -115 -9 -7 -20 -23 -25 -36 -6 -17 -16 -23 -37 -23 -26 0 -31 6
-47 48 -10 26 -22 52 -27 58 -5 8 1 33 19 68 23 48 31 56 55 56 18 0 28 -5 28
-14z"/>
<path d="M6890 12743 c-116 -11 -121 -13 -136 -49 -11 -26 -13 -55 -8 -114 5
-54 3 -84 -5 -93 -9 -12 -129 -14 -716 -14 -640 0 -706 -2 -730 -17 -31 -20
-35 -57 -15 -136 20 -78 -47 -71 739 -70 515 0 707 -3 717 -11 17 -14 20 -174
4 -184 -6 -4 -264 -6 -574 -5 l-564 1 -16 -23 c-14 -20 -16 -81 -16 -509 0
-415 2 -488 15 -499 11 -9 152 -12 580 -13 491 -2 567 -4 575 -17 6 -8 9 -46
8 -85 l-3 -70 -125 -12 c-69 -6 -154 -16 -190 -23 -115 -19 -288 -29 -565 -30
-308 -2 -369 -8 -390 -36 -17 -23 -21 -155 -5 -185 10 -18 23 -19 188 -19 155
0 328 10 457 25 153 18 310 25 584 25 342 0 580 13 653 36 51 15 201 24 214
11 12 -12 10 -204 -2 -217 -9 -9 -313 -12 -1168 -11 -636 0 -1163 -2 -1171 -6
-36 -13 -44 -195 -10 -223 9 -7 357 -11 1183 -13 644 -1 1174 -6 1179 -10 20
-21 -5 -314 -29 -328 -45 -28 -337 -13 -403 21 -46 23 -132 27 -160 6 -23 -17
-32 -109 -16 -159 15 -46 60 -67 139 -67 50 0 62 -3 74 -22 13 -19 28 -22 134
-30 171 -13 291 -3 330 27 17 13 44 27 59 31 15 4 30 15 32 25 3 11 11 19 19
19 7 0 21 15 30 33 9 17 22 39 29 47 9 11 14 68 17 200 2 102 7 191 11 198 6
9 86 12 342 12 l334 0 28 24 c26 22 28 30 28 95 0 60 -3 74 -23 93 -22 23 -24
23 -367 26 l-345 3 -1 27 c-1 15 -2 65 -2 110 0 96 4 102 74 102 26 0 71 5
100 10 99 19 185 -18 228 -98 26 -49 151 -16 214 55 17 19 17 21 -1 44 -10 13
-21 32 -25 42 -4 9 -18 22 -32 27 -14 5 -25 17 -25 25 0 9 -7 18 -15 22 -9 3
-24 22 -35 42 -10 20 -39 56 -65 81 -80 78 -89 103 -80 250 16 287 1 864 -24
894 -12 14 -71 16 -556 16 -299 0 -550 3 -559 6 -13 5 -16 23 -16 90 0 74 2
85 21 94 15 8 218 11 713 9 380 -1 697 0 703 4 18 11 34 97 27 145 -13 87 49
80 -742 80 -385 0 -705 3 -711 7 -8 5 -11 37 -10 98 3 76 0 97 -16 120 -17 26
-55 50 -73 45 -4 0 -23 -3 -42 -5z m-148 -935 c11 -19 10 -152 -2 -184 -10
-26 -12 -27 -73 -20 -34 3 -239 6 -454 6 -343 1 -392 3 -397 16 -3 9 -6 54 -6
100 0 78 2 85 23 94 36 15 899 3 909 -12z m1191 4 c27 -14 28 -15 25 -89 -5
-120 29 -112 -482 -114 -402 -1 -431 0 -443 17 -19 26 -17 154 3 183 l16 23
427 -3 c334 -3 432 -7 454 -17z m-1195 -427 c9 -4 12 -28 10 -92 l-3 -88 -463
-3 -462 -2 -11 27 c-7 19 -8 50 -2 93 7 56 11 65 32 70 27 6 879 1 899 -5z
m1218 -6 c9 -7 14 -31 14 -63 0 -47 -3 -53 -38 -81 l-37 -30 -410 -3 c-225 -2
-420 0 -433 3 -33 8 -44 47 -32 113 5 30 15 61 21 68 15 18 893 11 915 -7z
m-125 -384 c29 -18 88 -95 83 -109 -4 -10 -49 -15 -177 -20 -95 -4 -199 -11
-232 -16 -33 -6 -150 -13 -260 -16 -237 -8 -231 -11 -223 90 3 35 9 69 13 75
9 15 772 11 796 -4z"/>
<path d="M14385 12723 c-30 -29 -37 -65 -30 -150 7 -80 -1 -117 -29 -135 -6
-4 -198 -8 -427 -8 -333 0 -419 -3 -434 -14 -28 -20 -32 -87 -27 -423 6 -365
0 -348 113 -345 40 2 79 8 86 14 10 8 13 68 13 259 0 237 1 249 20 259 22 12
1673 10 1685 -2 4 -4 0 -29 -9 -55 -9 -26 -19 -88 -23 -138 -3 -54 -13 -107
-24 -132 -25 -55 -24 -105 1 -135 11 -12 26 -32 34 -42 10 -15 29 -21 72 -24
81 -6 101 12 110 93 4 33 13 67 20 75 16 19 33 92 34 143 0 22 8 49 20 65 16
21 24 60 36 157 8 72 18 146 21 166 4 31 1 39 -22 58 -27 21 -32 21 -521 21
l-494 0 0 120 c0 176 -10 190 -142 190 -49 0 -71 -4 -83 -17z"/>
<path d="M10989 12654 c-70 -21 -72 -27 -73 -180 -1 -102 -4 -137 -15 -143 -7
-5 -193 -7 -414 -6 -220 2 -410 -1 -423 -5 -49 -19 -45 -161 7 -201 17 -14 39
-19 79 -18 30 0 474 0 985 0 615 -1 943 3 967 9 21 6 42 19 48 30 17 32 12
135 -8 160 l-17 21 -461 1 c-253 0 -467 4 -475 8 -11 7 -15 41 -17 145 -4 135
-4 135 -34 165 -34 34 -72 38 -149 14z"/>
<path d="M3234 12626 c-3 -8 -6 -156 -7 -329 -2 -244 -5 -319 -15 -329 -10
-10 -153 -14 -704 -16 -485 -2 -695 -6 -705 -13 -9 -8 -13 -38 -13 -96 0 -76
2 -86 25 -108 l24 -25 583 -1 c321 0 619 -1 663 -2 l80 -2 3 -72 c2 -57 -1
-81 -17 -111 -11 -22 -24 -75 -30 -118 -7 -59 -14 -82 -30 -93 -11 -9 -23 -29
-26 -46 -4 -16 -18 -52 -31 -79 -13 -28 -24 -60 -24 -72 0 -26 -45 -117 -77
-157 -13 -16 -23 -36 -23 -46 0 -10 -11 -27 -24 -38 -13 -12 -27 -36 -31 -55
-4 -18 -32 -62 -61 -98 -30 -35 -54 -72 -54 -82 0 -9 -9 -19 -19 -23 -11 -3
-23 -15 -26 -26 -4 -10 -10 -19 -15 -19 -14 0 -90 -78 -90 -92 0 -8 -19 -31
-42 -51 -24 -21 -46 -41 -50 -45 -98 -100 -155 -152 -168 -152 -5 0 -12 -9
-15 -20 -3 -11 -12 -20 -19 -20 -7 0 -23 -11 -35 -24 -12 -13 -36 -27 -53 -30
-17 -3 -40 -15 -52 -27 -41 -39 -108 -89 -121 -89 -8 0 -20 -8 -27 -18 -7 -10
-25 -22 -41 -26 -25 -6 -50 -24 -114 -83 -13 -13 -35 -23 -48 -23 -13 0 -35
-5 -49 -12 -47 -21 -44 -122 3 -135 11 -3 21 -13 24 -23 3 -10 18 -21 35 -25
17 -3 36 -13 43 -21 15 -18 33 -18 48 0 7 8 29 17 50 21 22 3 49 17 62 31 12
13 30 24 39 24 8 0 31 13 50 30 19 16 39 29 44 30 5 0 19 11 32 25 13 14 32
25 42 25 27 0 108 62 228 175 40 38 87 76 102 85 28 15 117 98 253 235 41 42
71 81 75 100 4 16 15 36 25 43 11 7 19 18 19 23 0 6 23 34 50 62 28 28 54 66
59 84 5 18 21 47 35 64 14 17 26 39 26 49 0 11 9 24 19 29 10 6 24 24 29 41 6
16 20 40 31 52 12 12 21 32 21 44 0 11 14 38 30 59 17 21 30 46 30 56 0 10 11
39 25 65 14 26 25 57 25 69 0 48 17 35 67 -49 7 -12 13 -33 13 -47 0 -15 9
-38 20 -51 10 -14 24 -46 29 -71 12 -52 43 -107 84 -147 15 -16 27 -33 27 -39
0 -17 68 -113 91 -129 10 -7 19 -19 19 -26 0 -7 11 -22 25 -34 14 -12 25 -28
25 -34 1 -7 32 -47 71 -88 38 -41 77 -87 85 -102 8 -15 23 -32 34 -38 11 -6
20 -17 20 -26 0 -8 12 -20 27 -27 15 -6 39 -25 53 -41 53 -62 106 -109 140
-123 19 -8 41 -24 48 -34 7 -10 18 -19 23 -19 6 0 46 -36 89 -80 43 -44 83
-80 89 -80 5 0 16 -9 24 -20 7 -11 30 -27 50 -35 20 -8 37 -19 37 -24 0 -5 13
-14 29 -21 16 -6 31 -20 34 -31 3 -10 17 -23 31 -28 14 -6 34 -19 46 -31 11
-11 31 -20 45 -20 14 0 34 -11 47 -25 38 -44 76 -35 152 39 36 36 66 71 66 78
0 17 -86 98 -104 98 -13 0 -42 22 -101 78 -19 17 -39 32 -45 32 -6 0 -21 9
-33 20 -12 12 -31 23 -43 26 -12 3 -26 16 -33 30 -6 13 -17 24 -24 24 -14 0
-84 48 -127 87 -14 13 -30 23 -36 23 -7 0 -19 11 -28 25 -9 14 -22 25 -30 25
-7 0 -18 11 -24 25 -6 14 -17 25 -24 25 -7 0 -21 9 -33 20 -76 73 -219 218
-268 272 -33 34 -67 72 -78 83 -10 12 -19 25 -19 31 0 6 -9 19 -21 30 -12 10
-28 32 -36 49 -9 16 -27 41 -40 55 -13 14 -32 34 -42 45 -10 11 -21 37 -25 58
-4 20 -15 45 -25 55 -10 9 -21 34 -25 54 -4 21 -15 43 -25 50 -10 7 -24 31
-31 53 -7 22 -21 51 -31 64 -11 13 -19 35 -19 48 0 13 -11 35 -25 49 -19 19
-26 41 -35 106 -5 45 -16 91 -24 103 -8 12 -18 58 -21 103 l-7 80 54 7 c30 4
336 5 680 3 691 -3 670 -5 687 59 15 52 2 138 -23 162 -22 21 -33 21 -707 23
l-684 3 -5 340 -5 340 -113 3 c-90 2 -113 0 -118 -12z"/>
<path d="M9363 12624 c-3 -9 -7 -141 -7 -293 l-1 -276 -208 -5 c-170 -4 -209
-8 -217 -20 -22 -34 -10 -180 17 -210 3 -3 73 -7 156 -10 l152 -5 -3 -80 c-2
-60 -9 -92 -27 -127 -13 -27 -26 -75 -30 -115 -4 -37 -14 -75 -22 -84 -7 -9
-19 -45 -25 -80 -7 -37 -19 -70 -29 -79 -10 -8 -23 -35 -29 -60 -7 -24 -20
-55 -30 -67 -10 -13 -21 -47 -25 -75 -4 -28 -16 -65 -26 -82 -10 -17 -19 -39
-19 -48 0 -9 -11 -29 -25 -44 -14 -15 -28 -39 -31 -53 -3 -14 -10 -39 -15 -55
-20 -64 -6 -104 63 -178 28 -31 42 -38 71 -38 38 0 67 27 67 63 0 11 11 32 24
47 13 16 27 46 31 66 3 21 15 49 26 62 10 14 19 32 19 42 0 10 9 29 21 44 25
32 74 168 90 249 7 32 16 54 20 50 5 -5 10 -356 11 -782 3 -875 -5 -793 87
-806 66 -9 118 13 134 57 9 25 11 222 7 843 -5 874 -4 958 14 952 6 -2 13 -12
15 -23 1 -10 13 -32 26 -49 12 -16 25 -40 29 -53 4 -12 16 -27 26 -32 13 -7
21 -26 26 -61 4 -33 15 -60 30 -76 13 -14 24 -32 24 -38 0 -7 16 -29 36 -49
44 -44 88 -48 131 -12 15 12 38 28 51 35 18 10 22 20 22 61 0 42 -4 52 -25 66
-14 9 -25 23 -25 32 0 8 -11 29 -24 46 -13 17 -26 45 -30 62 -4 18 -18 46 -32
65 -13 18 -24 38 -24 44 0 7 -9 20 -20 30 -10 9 -24 33 -30 51 -7 19 -20 38
-30 44 -10 5 -21 25 -24 44 -4 19 -14 40 -23 47 -9 8 -22 29 -30 47 -7 17 -19
32 -27 32 -14 0 -28 48 -19 62 2 5 88 8 191 8 213 0 226 4 237 69 9 54 -4 130
-26 152 -17 17 -38 19 -238 19 l-219 0 -7 127 c-4 69 -5 193 -3 275 6 193 10
188 -123 188 -83 0 -101 -3 -106 -16z"/>
<path d="M12495 12583 c-11 -3 -24 -9 -28 -13 -5 -4 -9 -673 -8 -1486 l0
-1479 26 -22 c22 -19 38 -23 96 -23 119 0 109 -35 109 383 0 199 4 367 8 373
5 8 46 9 142 4 253 -15 295 -3 419 122 116 116 115 115 119 318 4 165 -6 267
-28 295 -4 6 -11 26 -15 45 -4 19 -18 48 -30 65 -13 16 -28 49 -34 72 -7 23
-17 46 -25 50 -12 8 -35 46 -74 129 -11 23 -27 44 -34 47 -8 3 -21 25 -27 50
-16 55 0 150 31 184 13 14 23 45 29 92 4 39 16 82 24 95 9 13 21 67 27 123 8
67 17 106 30 124 12 16 22 50 25 90 4 40 13 74 25 90 11 14 24 58 30 97 14 85
3 118 -39 128 -15 4 -41 17 -56 28 -28 20 -41 21 -375 23 -191 0 -356 -1 -367
-4z m547 -241 c13 -11 14 -19 2 -70 -8 -31 -14 -71 -14 -87 0 -17 -6 -40 -14
-51 -8 -11 -21 -55 -29 -98 -9 -49 -23 -86 -35 -99 -15 -16 -23 -42 -28 -92
-4 -40 -15 -84 -25 -101 -34 -56 -43 -281 -15 -346 4 -9 14 -19 21 -22 7 -2
16 -18 20 -34 3 -16 19 -42 35 -57 17 -16 30 -33 30 -38 0 -5 9 -20 20 -34 11
-14 20 -37 20 -52 0 -14 11 -45 24 -68 13 -23 27 -59 31 -81 3 -22 17 -55 31
-73 22 -30 24 -42 24 -147 0 -111 -1 -115 -27 -142 -16 -15 -41 -42 -57 -60
l-29 -32 -133 4 c-108 3 -136 7 -152 21 -10 9 -24 17 -30 17 -6 0 -14 10 -17
23 -3 12 -4 405 -3 872 l3 850 50 5 c101 10 281 5 297 -8z"/>
<path d="M11523 12001 c-73 -9 -88 -27 -87 -103 1 -49 5 -65 21 -78 11 -8 23
-32 27 -53 4 -23 16 -43 31 -53 14 -9 25 -21 25 -27 0 -5 12 -34 27 -64 l28
-54 -18 -47 c-10 -26 -24 -69 -32 -96 -8 -27 -23 -57 -33 -66 -11 -10 -23 -39
-26 -65 -4 -26 -15 -54 -25 -64 -10 -10 -21 -36 -24 -57 -4 -22 -15 -49 -24
-59 -30 -33 -80 -138 -88 -183 -4 -26 -14 -46 -26 -52 -10 -6 -19 -17 -19 -24
0 -7 -13 -27 -30 -44 -16 -18 -30 -43 -30 -56 0 -14 -10 -30 -24 -40 -18 -11
-27 -29 -31 -61 -5 -27 -13 -45 -20 -45 -7 0 -20 -2 -27 -5 -18 -7 -67 41 -80
76 -5 14 -20 31 -33 37 -17 8 -25 20 -25 36 0 13 -11 37 -24 53 -13 15 -26 38
-30 49 -4 12 -15 29 -26 39 -11 10 -20 28 -20 41 0 12 -11 35 -24 51 -13 15
-29 46 -36 68 -7 22 -21 51 -31 64 -11 13 -19 38 -19 55 0 17 -7 42 -15 56
-24 42 -33 64 -39 92 -4 15 -15 36 -26 45 -12 12 -23 42 -29 82 -6 35 -14 68
-20 74 -14 18 -17 63 -4 78 6 8 16 43 23 79 7 40 20 74 33 88 17 18 22 38 25
114 6 115 3 118 -123 118 -113 0 -125 -9 -125 -92 0 -63 -48 -225 -79 -264
-10 -13 -22 -45 -26 -71 -4 -28 -14 -53 -25 -60 -13 -9 -21 -32 -26 -71 -4
-38 -15 -67 -30 -85 -13 -16 -24 -34 -24 -41 0 -7 -11 -26 -25 -42 -14 -16
-28 -38 -31 -49 -4 -11 -15 -31 -25 -44 -10 -12 -21 -38 -25 -56 -3 -19 -28
-58 -60 -94 -30 -34 -54 -67 -54 -73 0 -7 -10 -22 -21 -34 -12 -13 -19 -30
-16 -38 8 -21 133 -76 172 -76 36 0 115 45 115 66 0 6 11 19 24 27 16 11 26
30 31 59 4 24 16 49 26 56 10 7 21 29 25 50 4 20 17 45 31 55 12 10 23 24 23
32 0 7 15 26 33 41 l32 27 12 -68 c7 -38 19 -75 27 -84 8 -9 18 -37 21 -61 9
-59 24 -97 41 -104 8 -3 14 -12 14 -19 0 -8 14 -31 30 -52 17 -21 30 -43 30
-50 0 -7 8 -23 19 -36 10 -13 24 -42 31 -64 7 -22 21 -48 31 -58 11 -10 19
-22 19 -26 0 -10 56 -83 89 -116 12 -13 23 -42 26 -71 7 -47 5 -53 -25 -87
-18 -21 -37 -37 -44 -37 -16 -1 -80 -60 -95 -87 -6 -13 -18 -23 -26 -23 -8 0
-20 -8 -27 -18 -7 -10 -32 -23 -55 -30 -24 -7 -47 -21 -53 -32 -5 -10 -19 -21
-29 -25 -11 -3 -23 -14 -26 -24 -4 -12 -19 -21 -45 -25 -21 -3 -45 -14 -52
-25 -7 -10 -30 -21 -51 -25 -23 -4 -43 -16 -53 -31 -9 -13 -26 -27 -37 -31
-12 -3 -29 -13 -38 -20 -9 -8 -42 -21 -75 -30 -32 -8 -65 -21 -74 -28 -8 -8
-33 -17 -55 -20 -82 -14 -138 -114 -78 -141 12 -5 24 -17 26 -27 3 -10 16 -22
29 -27 13 -5 30 -16 37 -25 17 -21 33 -20 62 3 13 10 47 21 74 25 28 4 65 16
83 27 18 10 52 22 75 25 45 7 74 19 95 41 7 7 24 13 36 13 22 0 73 33 123 79
13 11 39 23 58 27 20 3 41 14 48 24 6 9 22 22 35 29 12 6 22 19 22 27 0 8 15
21 34 29 19 8 69 48 112 90 44 41 93 87 110 101 18 15 41 35 53 45 20 18 21
18 70 -29 28 -26 64 -58 81 -72 17 -14 58 -51 91 -82 34 -32 66 -58 72 -58 6
0 20 -9 32 -20 53 -52 94 -79 128 -85 20 -4 37 -11 37 -15 0 -11 73 -63 120
-87 19 -10 41 -26 48 -35 7 -10 29 -20 50 -24 20 -4 42 -13 47 -20 14 -19 106
-64 129 -64 11 0 36 17 56 39 20 21 46 42 57 45 11 4 28 15 38 26 17 19 17 21
-11 61 -15 23 -40 45 -53 51 -14 5 -33 18 -43 28 -9 10 -35 21 -57 25 -21 3
-54 17 -72 31 -18 13 -38 24 -45 24 -7 0 -16 9 -19 20 -3 11 -10 20 -15 20 -4
0 -27 16 -50 35 -23 19 -48 35 -56 35 -8 0 -24 11 -36 25 -12 14 -27 25 -33
25 -6 0 -21 11 -33 24 -11 14 -37 28 -56 31 -22 5 -38 14 -41 26 -3 10 -15 21
-25 24 -10 3 -22 15 -25 25 -3 10 -16 22 -28 26 -25 7 -102 79 -149 137 l-31
38 22 15 c11 8 21 21 21 29 0 8 8 20 19 27 10 7 27 31 39 54 11 22 28 46 36
53 9 8 16 18 16 23 0 6 12 25 28 44 55 67 72 92 72 107 0 8 14 31 30 52 17 21
30 43 30 49 0 7 11 27 24 45 13 17 27 53 31 79 4 26 12 54 19 62 7 8 18 30 24
48 6 18 26 56 44 84 l33 50 8 -48 c4 -27 16 -56 26 -64 10 -9 21 -33 24 -55 4
-22 16 -48 27 -57 12 -9 24 -37 29 -63 5 -26 18 -60 30 -76 12 -15 21 -35 21
-44 0 -22 47 -37 95 -29 45 7 70 19 99 45 11 11 23 19 27 19 19 0 20 43 1 63
-11 12 -23 40 -27 62 -4 22 -16 56 -27 75 -11 19 -24 61 -29 95 -5 33 -18 71
-27 85 -10 14 -24 44 -31 68 -6 24 -19 46 -27 49 -8 3 -14 13 -14 22 0 10 -11
40 -25 67 -14 27 -30 64 -36 82 -6 17 -19 36 -28 42 -11 5 -21 26 -25 50 -3
22 -15 49 -26 60 -11 11 -23 38 -26 60 -4 22 -17 54 -30 72 -13 17 -24 39 -24
49 0 9 -7 22 -16 30 -8 7 -24 30 -35 50 -28 56 -65 70 -156 60z"/>
<path d="M13850 11822 c-19 -15 -24 -32 -30 -98 -8 -93 2 -120 52 -129 18 -3
302 -5 631 -3 l599 3 20 25 c17 21 19 36 16 97 -3 59 -8 77 -26 95 l-23 23
-608 3 c-579 2 -609 2 -631 -16z"/>
<path d="M13478 11189 c-14 -8 -18 -24 -18 -75 0 -78 10 -99 55 -118 32 -14
193 -21 350 -17 49 2 66 -2 88 -19 32 -26 34 -57 12 -187 -8 -49 -19 -126 -24
-173 -5 -47 -19 -105 -29 -130 -11 -25 -23 -65 -27 -90 -4 -25 -18 -58 -31
-75 -44 -56 -69 -87 -96 -118 -16 -16 -28 -33 -28 -38 0 -4 -10 -11 -22 -15
-13 -4 -40 -25 -61 -48 -21 -23 -43 -45 -48 -51 -6 -5 -20 -19 -32 -31 -12
-12 -33 -25 -46 -29 -14 -4 -46 -29 -73 -55 -37 -37 -58 -49 -91 -54 -23 -4
-57 -15 -75 -26 -18 -11 -39 -20 -47 -20 -25 0 -48 -46 -40 -81 11 -51 83
-115 138 -123 57 -9 116 6 151 39 15 14 38 25 51 25 13 0 36 11 51 25 14 13
35 27 45 30 11 4 19 13 19 20 0 8 13 21 29 29 16 9 31 22 34 30 3 8 19 17 35
21 16 3 41 18 55 33 35 36 47 49 79 80 15 15 30 39 33 54 4 15 18 34 31 43 13
8 24 22 24 30 0 9 11 20 24 25 13 5 27 19 31 30 4 12 16 31 26 41 10 10 19 32
19 48 0 18 10 41 24 56 16 17 27 44 31 78 4 28 16 63 27 78 26 34 49 191 55
373 7 199 -9 187 228 179 130 -4 199 -10 217 -19 l27 -14 3 -595 3 -595 23
-22 c13 -13 29 -32 36 -42 12 -17 34 -20 225 -29 138 -6 274 -6 392 0 162 8
183 12 195 29 15 21 26 33 49 52 8 7 15 27 15 44 0 16 9 68 20 115 26 104 42
385 26 423 -23 51 -154 68 -203 26 l-28 -24 -5 -189 -5 -190 -30 -35 c-16 -20
-39 -38 -50 -42 -41 -12 -380 -7 -397 7 -9 6 -26 44 -39 82 l-24 70 3 454 3
453 22 19 c20 17 43 18 257 19 233 0 302 8 332 38 15 15 12 150 -4 169 -8 10
-203 13 -1007 13 -658 -1 -1002 -4 -1013 -11z"/>
<path d="M6181 10044 c-17 -14 -31 -31 -31 -38 0 -7 -9 -21 -20 -31 -22 -20
-27 -73 -10 -104 5 -10 28 -26 50 -35 22 -9 40 -20 40 -26 0 -6 11 -15 24 -21
13 -6 29 -22 35 -35 6 -13 17 -24 24 -24 8 0 19 -11 25 -24 6 -15 23 -27 41
-31 17 -4 31 -10 31 -15 0 -15 27 -18 56 -5 16 7 43 18 59 24 36 14 97 84 90
103 -3 7 -26 29 -51 48 -25 19 -60 47 -79 63 -18 15 -38 27 -44 27 -6 0 -16
11 -21 24 -5 13 -18 27 -29 31 -11 3 -23 15 -26 25 -3 10 -14 22 -24 25 -10 3
-26 14 -36 25 -25 27 -68 25 -104 -6z"/>
<path d="M1542 9280 c-12 -5 -25 -16 -28 -25 -4 -8 -12 -15 -18 -15 -21 0 -84
-59 -90 -84 -3 -13 -15 -26 -26 -29 -12 -3 -20 -14 -20 -26 0 -11 -11 -28 -25
-37 -14 -9 -25 -22 -25 -29 0 -8 -11 -26 -24 -42 -14 -17 -27 -49 -31 -77 -6
-36 -13 -50 -31 -58 -19 -9 -24 -21 -29 -72 -3 -33 -5 -778 -3 -1654 l3 -1594
23 -18 c14 -11 26 -35 29 -57 7 -45 29 -93 43 -93 6 0 10 -9 10 -19 0 -30 11
-51 26 -51 8 0 20 -15 27 -32 8 -18 22 -39 31 -47 10 -8 24 -27 31 -42 8 -14
26 -30 41 -33 14 -4 36 -17 49 -30 22 -22 34 -24 192 -31 92 -4 2652 -8 5689
-9 4892 -1 5523 -3 5539 -16 16 -13 589 -15 4999 -18 l4981 -2 29 21 c18 13
51 24 85 28 45 5 58 10 66 29 5 12 16 22 24 22 21 0 130 115 137 147 4 15 16
38 26 50 12 13 22 42 25 70 3 28 14 57 25 70 13 14 23 45 29 93 5 40 13 89 19
109 6 23 10 542 10 1476 0 1235 -2 1450 -15 1510 -8 39 -15 89 -15 113 0 32
-6 49 -24 67 -17 17 -25 38 -28 80 -4 45 -10 62 -31 81 -15 14 -27 33 -27 43
0 10 -7 24 -16 32 -8 7 -24 30 -35 50 -14 29 -28 41 -58 50 -24 7 -41 19 -44
30 -3 11 -13 22 -24 25 -10 4 -28 16 -41 28 l-24 21 -10716 2 c-6585 1 -10726
-2 -10740 -7z m1308 -608 c0 -102 4 -152 12 -160 9 -9 94 -12 320 -12 l308 0
-2 -137 -3 -138 -810 0 -810 0 -7 120 c-4 66 -9 128 -12 138 -4 16 17 17 340
17 427 0 389 -18 379 181 l-7 139 146 0 146 0 0 -148z m3990 -129 c0 -158 4
-284 10 -293 7 -12 36 -15 150 -15 114 0 143 3 150 15 6 9 10 135 10 293 l0
277 135 0 135 0 0 -277 c0 -157 4 -285 10 -293 7 -12 36 -16 127 -18 135 -4
173 5 173 42 0 37 -10 56 -31 56 -17 0 -17 1 -1 30 9 16 29 35 44 41 26 11 38
34 38 75 0 15 8 24 25 28 14 4 25 11 25 16 0 5 14 23 30 40 17 17 30 41 30 54
0 12 11 32 25 44 19 16 25 32 25 61 0 43 1 45 43 55 23 5 34 1 58 -24 17 -16
41 -33 54 -36 13 -3 26 -12 29 -20 3 -7 26 -19 51 -25 40 -10 45 -15 45 -39 0
-21 -6 -29 -25 -34 -14 -4 -25 -11 -25 -16 0 -5 -11 -21 -25 -36 -14 -15 -25
-32 -25 -39 0 -6 -13 -27 -30 -45 -16 -18 -30 -42 -30 -52 0 -11 -11 -23 -25
-28 -18 -7 -25 -17 -25 -37 0 -16 -4 -34 -9 -42 -15 -23 8 -58 41 -65 17 -3
138 -6 270 -6 l239 0 -3 -112 -3 -113 -392 -1 -392 -1 -33 -33 c-29 -29 -33
-40 -36 -99 -3 -52 -9 -71 -28 -91 -29 -31 -42 -101 -22 -118 11 -9 121 -12
404 -14 l389 -3 0 -110 0 -110 -635 -3 -635 -2 -17 -22 c-12 -16 -14 -28 -7
-46 5 -13 9 -42 9 -65 0 -23 4 -46 8 -52 14 -20 49 -33 63 -24 8 5 258 9 562
9 l547 0 0 -112 c0 -62 -4 -118 -8 -124 -5 -8 -69 -9 -227 -4 -170 5 -879 6
-917 1 -11 -1 -53 -84 -49 -96 1 -5 7 -37 12 -70 7 -40 18 -68 33 -84 l24 -23
644 1 645 1 28 -25 c22 -21 26 -31 20 -53 -4 -15 -9 -46 -12 -69 l-5 -43 -542
-1 c-297 -1 -554 -4 -571 -8 -26 -5 -30 -10 -30 -41 0 -27 5 -37 23 -45 12 -5
25 -18 28 -27 3 -10 16 -21 30 -24 13 -4 29 -15 34 -25 6 -10 29 -23 52 -29
22 -7 49 -21 58 -33 13 -16 32 -22 79 -25 42 -3 61 -9 61 -18 0 -19 33 -34 73
-34 26 0 39 -6 50 -24 11 -16 30 -26 58 -31 23 -4 56 -16 75 -27 18 -11 59
-22 91 -25 32 -3 66 -12 75 -20 9 -8 49 -19 90 -25 46 -7 81 -18 95 -30 25
-23 80 -37 141 -38 44 0 144 -51 124 -63 -5 -4 -12 -25 -16 -48 -4 -23 -16
-49 -27 -58 -12 -9 -23 -33 -26 -57 -6 -50 -38 -66 -105 -53 -23 4 -62 8 -85
9 -24 0 -43 4 -43 9 0 14 -77 41 -118 41 -26 0 -41 6 -49 20 -7 10 -29 22 -50
26 -21 4 -47 17 -59 29 -15 16 -37 23 -84 28 -44 5 -69 13 -82 27 -11 12 -38
22 -69 26 -36 5 -54 13 -65 29 -9 14 -29 25 -53 29 -21 3 -46 15 -56 26 -10
11 -25 20 -33 20 -8 0 -28 11 -44 26 -17 14 -44 28 -59 31 -16 3 -29 9 -29 14
0 18 -34 39 -64 39 -20 0 -40 8 -51 20 -10 11 -35 25 -55 31 -20 6 -40 20 -46
33 -12 28 -73 34 -100 9 -19 -17 -19 -31 -14 -371 3 -195 2 -356 -2 -359 -5
-2 -74 -5 -155 -6 l-148 -2 -3 370 c-2 367 -2 370 -24 386 -14 11 -27 14 -37
9 -9 -5 -29 -11 -44 -15 -17 -3 -31 -15 -37 -30 -5 -14 -17 -25 -26 -25 -10 0
-32 -11 -50 -25 -18 -14 -42 -25 -53 -25 -11 0 -32 -11 -48 -24 -16 -14 -42
-28 -56 -32 -15 -3 -32 -14 -37 -23 -5 -10 -27 -23 -49 -30 -22 -6 -45 -21
-51 -31 -6 -11 -19 -20 -30 -20 -11 0 -27 -11 -35 -24 -11 -16 -29 -26 -56
-30 -29 -5 -43 -12 -46 -26 -4 -15 -18 -20 -70 -26 -48 -5 -71 -13 -90 -30
-14 -13 -37 -24 -50 -24 -13 0 -34 -11 -47 -23 -17 -17 -40 -26 -77 -30 -30
-4 -65 -15 -79 -25 -16 -12 -49 -21 -94 -24 -47 -4 -77 -12 -97 -27 -15 -12
-35 -21 -44 -21 -24 0 -50 31 -63 76 -7 22 -21 49 -32 59 -11 10 -20 24 -20
31 0 19 -32 84 -42 84 -4 0 -8 4 -8 9 0 5 17 12 38 16 20 4 46 15 57 25 14 12
44 19 105 23 73 6 88 10 105 30 14 17 34 26 67 29 25 3 59 14 75 25 18 13 53
22 97 26 48 5 76 13 90 26 12 10 32 22 46 26 14 4 36 18 50 30 15 15 40 25 65
27 30 2 42 9 50 26 8 17 18 22 48 22 41 0 107 24 107 39 0 5 13 14 29 19 16 6
32 19 35 30 5 14 18 21 50 24 32 4 58 16 90 43 25 21 46 43 46 50 0 8 -12 23
-26 34 -26 21 -35 21 -570 21 l-544 0 0 89 0 88 68 6 c37 4 330 7 650 7 537 0
586 1 615 18 18 9 35 22 39 27 4 6 8 49 8 96 0 96 -17 128 -68 130 -15 0 -270
2 -567 2 l-540 2 -3 75 c-2 41 -1 94 3 116 l6 42 571 1 c391 1 576 5 585 13
17 14 18 159 1 176 -9 9 -165 12 -640 12 l-628 0 0 115 0 115 365 0 c362 0
364 0 385 22 13 15 17 25 10 32 -5 5 -10 22 -10 37 0 26 -18 53 -40 61 -5 1
-13 31 -16 64 -6 54 -11 66 -44 98 l-37 36 -384 2 -384 3 -3 113 -3 112 293 1
c161 1 304 4 318 8 37 10 40 67 6 104 -14 16 -29 39 -32 53 -4 14 -17 30 -30
34 -14 6 -24 18 -24 28 0 20 -40 79 -81 120 -20 19 -21 25 -9 32 8 6 18 10 22
10 4 0 9 9 13 19 3 10 16 22 29 25 13 3 49 27 81 53 42 35 60 44 63 34 3 -8
15 -24 27 -35 12 -12 30 -36 39 -54 9 -18 24 -36 32 -39 7 -3 14 -15 14 -28 0
-12 14 -39 30 -60 17 -21 30 -44 30 -51 0 -8 11 -21 25 -30 19 -13 25 -25 25
-54 0 -58 -8 -70 -45 -70 -56 0 -86 -50 -48 -81 25 -21 380 -20 393 1 6 9 10
135 10 293 l0 277 135 0 135 0 0 -277z m3842 155 c4 -155 -7 -148 219 -148
191 0 184 4 173 -96 -5 -37 -2 -61 9 -83 14 -29 14 -34 -1 -61 -13 -23 -24
-30 -49 -30 -17 0 -43 -4 -56 -9 -23 -9 -24 -15 -31 -117 -4 -60 -13 -122 -22
-139 -19 -41 -34 -134 -34 -217 0 -96 3 -98 161 -98 174 0 172 -2 163 158 -4
64 -7 295 -8 512 l-1 395 105 3 c58 2 120 0 138 -3 l32 -6 0 -514 c0 -454 2
-515 16 -529 13 -14 59 -16 352 -16 l338 0 -4 -107 c-1 -60 -5 -118 -8 -131
l-5 -23 -297 7 c-295 7 -297 7 -316 -15 -18 -20 -19 -34 -13 -221 4 -170 8
-205 23 -228 14 -21 19 -57 24 -162 3 -74 12 -145 18 -157 13 -23 69 -40 97
-29 17 6 35 46 35 79 0 11 9 31 21 43 16 17 22 41 28 103 6 68 10 84 29 97 17
12 22 25 22 58 0 29 7 51 20 66 23 26 28 45 32 105 l3 40 97 -2 c89 -1 99 -4
125 -27 15 -14 33 -26 40 -26 18 0 16 -10 -3 -24 -17 -13 -33 -73 -34 -127 0
-25 -8 -43 -25 -59 -20 -18 -25 -33 -25 -69 0 -33 -7 -57 -24 -82 -14 -21 -28
-60 -32 -90 -4 -29 -18 -68 -31 -87 -12 -19 -23 -44 -23 -54 0 -11 -11 -33
-25 -50 -14 -16 -25 -38 -25 -47 0 -10 -9 -29 -21 -42 -11 -13 -23 -37 -26
-52 -3 -17 -16 -33 -29 -39 -12 -6 -25 -21 -28 -34 -4 -13 -17 -35 -31 -50
-21 -23 -25 -37 -25 -89 0 -69 14 -121 36 -129 10 -4 14 -22 14 -58 0 -72 19
-98 70 -98 67 0 70 9 70 206 0 102 -4 183 -10 195 -10 18 -7 19 40 19 36 0 59
-6 80 -22 19 -13 49 -23 83 -26 l54 -4 -3 -42 c-2 -22 -5 -118 -7 -212 -3
-156 -6 -174 -24 -198 -16 -20 -23 -48 -28 -111 -6 -69 -11 -85 -26 -90 -10
-3 -21 -16 -25 -28 -8 -28 -113 -127 -135 -127 -9 0 -24 9 -34 20 -10 11 -27
22 -39 26 -25 8 -67 52 -84 88 -6 14 -18 26 -26 26 -8 0 -17 14 -21 31 -4 16
-20 44 -36 60 -16 16 -29 36 -29 44 0 7 -9 17 -20 20 -15 5 -20 15 -20 41 0
45 -29 74 -74 74 -43 0 -66 -9 -66 -25 0 -6 -13 -26 -29 -42 -15 -17 -30 -34
-32 -39 -2 -5 -22 -24 -44 -43 -44 -37 -85 -88 -112 -138 -9 -18 -24 -35 -34
-38 -9 -3 -20 -17 -23 -30 -3 -13 -15 -26 -25 -30 -10 -3 -21 -15 -24 -25 -8
-31 -61 -27 -75 5 -6 14 -19 25 -27 25 -9 0 -20 11 -25 25 -5 14 -15 25 -23
25 -7 0 -30 16 -51 35 -31 28 -37 40 -32 59 3 14 16 28 28 32 13 4 44 25 71
48 44 38 47 44 45 81 -2 31 -9 42 -28 52 -19 10 -143 13 -522 13 -273 0 -503
3 -511 6 -13 5 -15 89 -11 677 3 370 9 676 13 680 4 4 250 8 547 7 413 0 540
-3 546 -13 5 -6 7 -306 4 -665 -4 -644 -3 -654 16 -672 19 -17 22 -18 44 -3
13 8 24 24 24 34 0 13 7 19 21 19 13 0 23 8 26 20 3 12 18 27 34 36 16 8 29
21 29 29 0 8 10 25 23 39 12 13 36 43 52 66 17 22 42 54 58 71 38 42 32 114
-12 146 -15 10 -19 30 -23 96 -3 67 -9 90 -26 112 -19 23 -22 41 -22 109 0 99
-15 193 -33 215 -10 11 -16 53 -20 127 -4 74 -11 124 -23 150 -12 26 -20 76
-23 146 -5 92 -9 109 -26 122 -17 12 -109 14 -643 13 l-622 -2 0 75 c-1 41 -3
101 -7 133 l-5 57 100 0 c138 0 135 -4 127 169 -5 101 -12 146 -26 176 -10 22
-21 71 -25 109 -9 90 -31 117 -101 123 l-50 5 -6 79 c-9 108 -16 119 -77 119
-38 0 -52 -4 -59 -19 -6 -11 -12 -308 -16 -782 -3 -420 -9 -894 -13 -1054 -8
-334 -7 -648 3 -922 l7 -192 -24 -5 c-12 -3 -74 -8 -135 -11 l-113 -7 0 227
c0 137 -4 234 -10 246 -15 27 -64 25 -87 -4 -11 -14 -34 -26 -57 -30 -21 -3
-55 -18 -75 -32 -21 -14 -49 -25 -65 -25 -16 0 -36 -10 -50 -25 -13 -14 -31
-25 -40 -25 -9 0 -21 -11 -26 -24 -6 -16 -19 -26 -44 -30 -20 -4 -45 -17 -56
-28 -18 -19 -22 -20 -45 -8 -18 10 -27 25 -31 51 -4 21 -15 47 -25 58 -29 31
-46 91 -35 122 8 23 16 27 58 31 31 3 57 13 69 24 19 19 19 49 20 1197 1 1089
0 1179 -15 1203 -30 45 -55 64 -85 64 -55 0 -56 2 -55 116 1 58 6 110 11 115
5 5 201 8 494 7 l484 -3 5 -73 c3 -50 10 -76 20 -82 20 -13 431 -13 464 0 26
9 26 11 26 112 0 160 -11 148 146 148 l133 0 3 -122z m2575 108 c11 -17 47
-36 71 -36 11 0 36 -13 56 -29 21 -16 42 -31 48 -33 6 -2 2 -20 -11 -46 -11
-22 -21 -48 -21 -57 0 -8 -4 -15 -9 -15 -20 0 -41 -33 -41 -64 0 -20 -8 -40
-20 -51 -11 -10 -25 -35 -31 -56 -7 -22 -19 -39 -30 -42 -13 -3 -21 -18 -25
-46 -4 -27 -14 -45 -30 -56 -41 -27 -25 -119 23 -131 30 -8 82 2 102 20 11 9
54 15 127 19 88 3 120 9 150 25 31 17 61 22 137 24 82 3 101 6 112 21 23 31 0
127 -30 127 -7 0 -17 9 -20 20 -3 11 -15 25 -26 30 -12 7 -19 21 -19 39 0 26
4 29 44 35 24 4 51 15 61 26 9 10 30 22 46 25 16 4 36 17 44 29 21 32 75 25
75 -11 0 -13 11 -35 25 -49 14 -14 25 -32 25 -40 0 -22 29 -74 41 -74 5 0 15
-13 20 -30 6 -16 15 -30 20 -30 5 0 15 -12 22 -27 6 -16 22 -36 33 -45 12 -10
25 -33 28 -53 4 -19 15 -39 26 -45 11 -6 21 -26 25 -50 4 -22 15 -46 26 -54
12 -8 23 -32 27 -57 6 -33 12 -45 27 -47 12 -2 27 -19 38 -41 26 -56 22 -75
-17 -89 -19 -7 -37 -19 -40 -27 -3 -8 -24 -18 -46 -21 -25 -4 -48 -16 -59 -30
-10 -13 -25 -24 -33 -24 -8 0 -23 -9 -33 -20 -16 -18 -17 -23 -5 -45 7 -14 17
-25 21 -25 4 0 15 -7 23 -16 14 -14 16 -103 16 -834 0 -767 -1 -824 -19 -902
-10 -46 -22 -105 -26 -133 -4 -29 -17 -61 -31 -78 -13 -16 -24 -37 -24 -48 0
-12 -10 -23 -26 -29 -14 -6 -28 -19 -31 -29 -3 -14 -18 -22 -46 -27 -23 -3
-54 -16 -70 -28 -26 -19 -41 -21 -180 -21 -125 1 -157 4 -182 18 -16 9 -46 17
-66 17 -20 0 -50 5 -66 11 l-31 10 -4 132 c-3 73 -3 136 0 141 8 14 209 -2
244 -20 30 -16 89 -13 113 6 6 4 27 10 47 14 62 11 68 30 68 198 0 106 -3 149
-12 154 -21 13 -769 18 -800 5 l-28 -11 0 -315 0 -315 -140 0 -140 0 0 1075 0
1075 654 0 c622 0 655 1 677 19 20 16 21 22 12 47 -7 16 -14 46 -18 67 -3 21
-15 46 -26 55 -10 9 -19 26 -19 39 0 12 -4 33 -10 47 -8 22 -16 26 -53 26 -24
0 -70 -9 -103 -19 -44 -14 -95 -20 -200 -23 -134 -3 -142 -4 -171 -29 -30 -25
-36 -26 -218 -33 -169 -7 -235 -17 -235 -36 0 -4 -55 -10 -122 -13 -69 -3
-141 -13 -165 -21 -36 -14 -45 -14 -71 -1 -27 14 -30 21 -36 83 -6 52 -13 73
-32 93 -18 19 -25 35 -22 55 3 27 7 29 57 36 30 3 63 11 75 16 12 5 34 15 49
21 15 6 31 19 34 28 4 10 16 25 26 34 13 10 21 32 25 67 3 36 11 57 28 73 13
12 24 30 24 40 0 9 10 24 23 32 13 8 29 33 35 55 7 22 19 42 26 45 8 3 18 27
22 53 4 28 15 55 26 64 10 8 21 33 25 55 3 22 17 53 30 68 12 16 23 36 23 46
0 10 3 21 7 24 12 12 72 7 80 -7z m1533 -244 c0 -234 2 -260 18 -274 26 -23
74 -29 96 -12 11 8 32 14 46 14 15 0 39 11 53 24 16 15 43 26 78 30 30 4 63
16 74 26 11 10 46 23 77 30 32 6 60 16 64 22 3 5 26 18 50 29 25 10 47 25 50
34 4 8 16 15 29 15 35 0 85 21 85 35 0 8 19 16 50 20 33 5 55 14 64 26 8 11
30 22 52 26 22 3 45 10 52 16 9 7 14 1 18 -21 4 -17 17 -38 30 -47 13 -8 24
-25 24 -36 0 -11 11 -31 25 -45 17 -17 25 -36 25 -59 0 -31 -3 -35 -25 -35
-14 0 -37 -11 -50 -24 -13 -13 -38 -27 -54 -31 -17 -3 -41 -15 -54 -25 -12
-10 -40 -22 -61 -26 -21 -3 -48 -17 -59 -30 -11 -13 -29 -24 -39 -24 -23 0
-78 -27 -78 -39 0 -4 -23 -11 -52 -14 -30 -4 -60 -14 -72 -26 -12 -11 -38 -23
-59 -26 -21 -4 -51 -18 -67 -31 -15 -13 -39 -24 -53 -24 -35 0 -77 -20 -77
-37 0 -9 -17 -13 -64 -13 -51 0 -69 -4 -92 -22 -15 -13 -44 -28 -64 -33 l-35
-11 -3 -165 -2 -166 27 -36 c16 -20 35 -47 44 -59 17 -23 18 -23 305 -26 315
-3 366 0 394 28 10 10 26 20 36 22 10 2 23 17 29 33 5 17 15 35 22 40 7 6 15
65 21 148 5 76 11 140 14 142 2 2 26 -7 53 -20 36 -19 64 -25 113 -25 l65 0
-5 -230 c-4 -215 -5 -231 -25 -252 -11 -13 -24 -33 -28 -45 -3 -13 -13 -23
-21 -23 -8 0 -19 -11 -25 -24 -7 -14 -22 -27 -34 -30 -12 -3 -25 -14 -28 -25
-4 -17 -19 -19 -168 -26 -90 -4 -318 -6 -506 -4 -341 4 -343 4 -358 26 -9 12
-34 28 -55 34 -22 7 -40 16 -40 21 0 5 -13 21 -29 37 -19 18 -31 43 -36 72 -4
24 -14 60 -23 79 -12 26 -18 80 -22 204 -3 123 -8 170 -17 174 -7 2 -13 16
-13 31 0 15 6 33 13 40 9 9 12 114 12 457 l0 444 143 0 142 0 0 -258z m-10608
-92 c3 -250 5 -302 18 -314 16 -16 194 -21 595 -18 129 0 182 -2 187 -11 4 -7
8 -60 8 -119 0 -99 -1 -107 -21 -113 -11 -4 -187 -5 -390 -3 l-369 3 -35 -38
-35 -38 0 -104 c0 -95 2 -106 24 -132 l24 -28 125 3 c103 2 126 0 137 -13 10
-13 12 -169 7 -834 -3 -451 -3 -829 0 -840 3 -13 25 -32 54 -46 67 -35 191
-36 249 -3 21 13 41 32 44 43 3 11 6 163 6 338 0 204 4 317 10 317 6 0 10 -4
10 -8 0 -19 61 -35 153 -40 l97 -5 0 -349 c0 -334 -1 -351 -20 -378 -11 -16
-23 -41 -26 -57 -7 -36 -34 -69 -65 -78 -13 -4 -32 -17 -41 -29 -16 -21 -24
-21 -330 -24 l-313 -3 -32 33 -32 33 -3 885 c-3 824 -4 888 -20 913 -10 14
-18 35 -18 46 0 24 -43 56 -64 48 -8 -3 -16 -25 -19 -49 -3 -24 -10 -65 -16
-93 -5 -27 -10 -112 -10 -188 -1 -121 -4 -143 -23 -180 -19 -36 -23 -64 -27
-193 -5 -130 -9 -155 -25 -173 -13 -14 -21 -43 -25 -89 -5 -49 -13 -76 -29
-97 -12 -15 -25 -45 -28 -67 -4 -21 -10 -38 -14 -38 -13 0 -30 -50 -36 -108
-4 -33 -14 -65 -25 -77 -10 -11 -22 -40 -28 -63 -5 -24 -18 -50 -29 -58 -12
-8 -23 -31 -27 -56 -4 -23 -16 -49 -26 -57 -11 -9 -22 -33 -26 -55 -3 -21 -17
-49 -29 -62 -15 -14 -24 -35 -24 -54 0 -23 -6 -33 -25 -40 -14 -5 -25 -16 -25
-23 0 -8 -11 -26 -25 -42 -14 -15 -28 -40 -32 -56 -3 -15 -13 -31 -23 -34 -10
-3 -23 -19 -28 -34 -8 -24 -15 -28 -36 -24 -14 3 -32 16 -41 29 -8 13 -22 24
-29 24 -8 0 -28 11 -44 25 -17 14 -44 28 -61 31 -26 5 -31 11 -31 34 0 15 13
44 30 65 17 21 30 46 30 55 0 9 13 34 30 55 17 21 30 44 30 52 0 7 11 18 25
23 15 6 25 17 25 29 0 11 9 29 20 39 22 21 40 71 40 114 0 17 7 29 19 33 20 6
31 33 31 75 0 14 9 31 19 37 11 7 25 29 32 50 7 21 19 43 26 48 8 6 19 44 25
88 8 53 15 77 25 77 18 0 33 41 33 90 0 21 5 42 11 45 19 12 31 59 40 153 4
52 12 99 17 105 14 19 30 95 38 180 4 42 10 77 14 77 18 0 33 66 37 170 4 88
10 125 26 159 17 37 21 70 25 197 7 238 10 234 -169 234 -72 0 -138 4 -148 10
-16 8 -18 19 -14 77 3 37 1 85 -5 105 -8 28 -7 40 1 45 7 5 79 8 160 8 135 0
150 2 163 19 11 16 14 76 14 318 l0 298 140 0 139 0 3 -300z m428 280 c0 -11
11 -27 25 -36 14 -9 25 -22 25 -30 0 -7 10 -16 23 -19 17 -5 26 -18 35 -51 7
-24 16 -44 22 -44 15 0 80 -69 90 -96 5 -13 17 -24 25 -24 13 0 15 -11 13 -57
l-3 -58 -44 -7 c-24 -4 -54 -17 -66 -28 -12 -12 -39 -25 -60 -31 -33 -9 -40
-8 -62 13 -14 13 -32 38 -40 56 -7 18 -21 36 -29 39 -9 3 -20 17 -25 30 -5 14
-18 27 -28 30 -13 3 -21 17 -25 44 -4 25 -14 42 -28 50 -12 6 -37 26 -55 44
l-33 32 28 25 c15 14 39 33 55 43 15 9 27 22 27 28 0 6 12 24 27 39 20 21 36
28 65 28 31 0 38 -4 38 -20z m15964 -65 c18 -14 38 -25 43 -25 6 0 18 -11 27
-25 9 -14 23 -25 31 -25 8 0 19 -9 25 -20 6 -12 23 -25 37 -31 21 -8 25 -14
20 -38 -4 -16 -16 -40 -29 -54 -62 -66 -78 -89 -78 -111 0 -14 -10 -30 -25
-40 -14 -9 -25 -23 -25 -31 0 -8 -13 -30 -30 -48 -16 -19 -30 -39 -30 -45 0
-5 -11 -17 -25 -26 -14 -9 -25 -24 -25 -34 -1 -9 -14 -33 -30 -52 -17 -19 -30
-40 -30 -47 0 -8 -11 -18 -25 -23 -15 -6 -25 -17 -25 -29 0 -11 -9 -22 -19
-26 -20 -6 -24 -15 -36 -71 -4 -19 -14 -34 -25 -37 -10 -3 -21 -18 -25 -38 -4
-18 -14 -40 -22 -48 -14 -13 -13 -16 3 -28 15 -11 41 -13 119 -7 55 3 108 10
117 15 9 5 149 9 311 9 303 0 387 7 420 38 17 15 55 18 362 23 262 4 347 8
359 18 10 9 16 29 16 57 0 36 -4 46 -27 61 -15 10 -36 26 -46 36 -10 10 -31
20 -47 24 -23 4 -30 11 -30 30 0 34 -99 133 -134 133 -19 0 -26 5 -26 20 0 12
-10 25 -25 32 -18 8 -25 19 -25 40 0 18 5 28 15 28 8 0 20 10 26 23 15 28 79
87 94 87 7 0 17 11 23 24 15 33 57 40 70 11 6 -13 28 -31 49 -41 25 -12 44
-32 55 -56 10 -20 26 -39 37 -43 11 -3 23 -15 26 -26 4 -10 11 -19 16 -19 12
0 89 -77 89 -90 0 -6 20 -19 44 -29 30 -13 45 -27 50 -44 8 -34 73 -100 114
-116 21 -9 38 -26 47 -47 15 -35 77 -104 95 -104 5 0 10 -5 10 -10 0 -16 97
-110 113 -110 19 0 44 -30 52 -63 5 -17 17 -32 31 -37 13 -5 24 -16 24 -24 0
-9 10 -21 23 -27 32 -18 74 -65 85 -97 11 -34 -5 -79 -31 -86 -10 -2 -21 -13
-24 -24 -3 -11 -15 -23 -28 -26 -12 -3 -39 -24 -59 -47 -31 -33 -42 -40 -62
-35 -17 5 -26 16 -31 37 -3 16 -13 35 -23 42 -9 7 -22 22 -29 35 -6 12 -20 22
-31 22 -12 0 -20 8 -22 23 -2 14 -11 23 -25 25 -13 2 -23 9 -23 17 0 12 -43
72 -89 122 -20 22 -21 22 -248 17 -189 -5 -235 -9 -268 -24 -33 -15 -79 -19
-260 -24 -161 -4 -235 -10 -275 -22 -38 -11 -122 -19 -275 -25 -283 -10 -516
-28 -558 -41 -18 -6 -190 -14 -392 -18 -281 -6 -370 -11 -407 -23 -48 -15 -48
-15 -76 11 -27 25 -29 34 -35 127 -4 55 -11 115 -16 133 l-10 32 150 0 c150 0
189 7 189 36 0 8 11 19 25 24 14 5 25 16 25 23 0 8 14 28 30 45 18 19 30 43
30 58 0 17 6 28 20 31 10 3 22 14 26 25 3 10 16 23 30 28 13 5 26 21 30 35 3
14 12 25 20 25 17 0 34 32 34 65 0 18 7 28 24 35 13 4 26 20 30 34 3 14 13 26
21 26 9 0 20 11 24 24 5 13 21 36 35 51 14 15 26 38 26 50 0 14 8 25 20 28 11
3 24 17 30 31 5 14 16 26 25 26 16 0 35 38 35 70 0 11 23 41 50 68 28 27 50
53 50 59 0 6 14 27 30 48 17 21 30 44 30 51 0 19 7 18 44 -11z m-8701 -20 c11
-7 25 -31 32 -52 7 -21 22 -42 33 -48 12 -5 23 -23 27 -41 3 -18 14 -43 24
-55 10 -13 22 -48 26 -77 4 -33 16 -63 31 -81 14 -17 24 -42 24 -61 0 -38 16
-70 34 -70 10 0 16 -21 21 -74 4 -41 4 -79 1 -85 -4 -6 -26 -11 -50 -11 -52 0
-102 -16 -110 -36 -9 -23 -73 -18 -81 5 -3 11 -14 23 -24 26 -15 4 -20 19 -23
72 -3 51 -9 69 -24 82 -16 12 -22 33 -27 81 -4 47 -11 69 -25 80 -10 9 -22 32
-26 53 -4 23 -16 43 -30 52 -15 10 -26 29 -30 55 -4 25 -14 43 -26 50 -14 8
-20 21 -20 45 0 35 0 35 44 35 35 0 48 5 61 23 28 40 105 58 138 32z m7468
-15 c5 -8 8 -40 5 -70 -3 -30 -1 -74 3 -97 8 -40 7 -43 -19 -51 -15 -6 -289
-10 -639 -11 -336 -1 -617 -4 -624 -7 -7 -2 -21 -18 -31 -35 -16 -27 -17 -77
-18 -692 -1 -663 2 -725 34 -764 8 -10 163 -13 714 -13 l704 0 0 -150 0 -150
-703 0 c-658 0 -705 -1 -719 -17 -8 -10 -18 -27 -22 -38 -8 -23 -10 -919 -1
-967 4 -24 0 -40 -14 -58 -19 -24 -23 -25 -160 -26 -78 0 -141 2 -141 5 0 3
-3 244 -5 535 -4 325 -10 536 -16 548 -10 18 -35 18 -716 18 -388 -1 -710 3
-714 7 -4 4 -9 70 -11 145 -2 108 0 139 10 143 8 3 328 5 713 5 l699 0 15 23
c13 21 15 112 15 732 1 702 0 709 -20 729 -20 21 -31 21 -638 26 -339 3 -627
2 -639 -2 -15 -5 -23 -2 -27 8 -7 19 -8 217 -1 236 4 11 258 12 1480 8 1297
-4 1477 -7 1486 -20z m-2819 -383 c9 -7 20 -25 23 -40 4 -15 15 -33 25 -40 10
-7 23 -31 29 -55 7 -23 21 -46 31 -52 11 -6 20 -19 20 -30 0 -30 21 -69 42
-75 10 -4 18 -13 18 -21 0 -8 9 -23 21 -35 11 -11 23 -37 26 -57 7 -43 29 -92
43 -92 5 0 10 -12 12 -27 2 -17 12 -32 25 -38 15 -6 24 -21 28 -50 4 -22 17
-56 30 -75 12 -19 25 -47 29 -61 3 -15 14 -29 25 -32 24 -6 37 -76 24 -127 -8
-32 -14 -36 -60 -46 -29 -6 -64 -21 -79 -33 -15 -11 -33 -21 -40 -21 -7 0 -19
-7 -27 -15 -13 -13 -16 -13 -27 0 -7 8 -18 15 -25 15 -16 0 -25 23 -25 64 0
21 -9 43 -23 58 -15 16 -26 44 -31 74 -4 30 -14 55 -25 64 -10 8 -24 32 -31
53 -6 20 -20 41 -29 47 -11 5 -21 26 -25 49 -3 22 -14 46 -24 53 -9 7 -23 25
-29 41 -7 15 -19 27 -27 27 -9 0 -17 15 -21 41 -4 24 -17 49 -31 62 -15 13
-24 31 -24 49 0 18 -10 38 -25 52 -14 13 -25 28 -25 33 0 6 -13 24 -30 41 -45
48 -36 91 25 116 18 8 38 24 45 35 6 12 20 21 30 21 11 0 25 9 32 20 15 23 73
27 100 7z m2542 -112 c18 -18 36 -25 64 -25 23 0 49 -8 63 -19 13 -10 34 -21
47 -25 29 -10 28 -37 -3 -66 -14 -13 -25 -32 -25 -41 0 -10 -9 -26 -19 -36
-11 -10 -25 -41 -32 -68 -6 -28 -22 -61 -35 -76 -13 -14 -24 -30 -24 -37 0 -6
-11 -22 -25 -36 -17 -17 -25 -36 -25 -60 0 -22 -9 -45 -24 -63 -13 -15 -26
-38 -30 -50 -4 -13 -11 -23 -16 -23 -20 0 -40 -34 -40 -66 0 -19 -4 -34 -9
-34 -18 0 -41 -32 -41 -56 0 -14 -11 -35 -25 -48 -14 -13 -25 -30 -25 -38 0
-8 -13 -29 -30 -46 -16 -18 -30 -43 -30 -56 0 -16 -7 -26 -21 -29 -11 -3 -23
-15 -26 -26 -5 -20 -23 -30 -23 -13 0 9 -64 42 -83 42 -7 0 -18 9 -24 19 -8
13 -29 22 -58 26 l-45 7 0 53 c0 43 5 59 30 90 17 21 30 43 30 50 0 7 11 20
25 29 14 9 25 23 25 32 0 8 11 30 25 48 14 18 25 43 25 55 0 11 9 29 20 38 11
10 23 32 26 51 4 22 15 37 31 45 13 6 26 22 30 36 3 14 17 39 30 54 12 16 23
39 23 52 0 14 9 29 20 35 10 6 24 28 30 51 6 22 17 42 25 45 18 7 35 58 35
104 0 29 6 41 25 54 14 9 25 26 25 37 0 18 4 21 29 16 16 -4 41 -18 55 -32z
m-15674 -145 c0 -5 9 -19 20 -30 20 -20 21 -28 17 -433 -4 -365 -12 -526 -27
-541 -3 -2 -120 -6 -261 -8 -198 -2 -260 -6 -273 -17 -15 -12 -16 -72 -16
-665 0 -699 2 -664 -47 -714 -7 -7 -13 -20 -13 -28 0 -8 -6 -14 -14 -14 -7 0
-26 -13 -42 -28 -35 -33 -149 -58 -219 -48 -24 4 -90 11 -147 15 -110 9 -164
30 -174 66 -2 11 -3 76 -2 145 l3 125 45 -3 c25 -2 52 -10 60 -17 24 -20 51
-25 145 -26 137 -2 125 -63 125 617 0 447 -3 575 -12 581 -7 4 -141 8 -298 10
-157 1 -295 2 -307 3 l-23 0 0 492 c0 454 1 493 18 509 16 17 61 18 730 18
468 1 712 -2 712 -9z m11350 -1088 c0 -195 7 -245 37 -268 28 -21 103 -17 143
7 20 12 65 25 105 30 43 6 81 17 97 29 15 11 36 20 46 20 11 0 27 11 35 24 13
19 28 25 77 31 43 5 64 13 74 26 9 13 30 22 67 26 36 4 60 14 76 29 13 13 41
28 64 34 22 6 42 17 45 24 3 8 23 17 46 20 22 4 57 16 77 28 42 24 71 19 71
-12 0 -12 11 -32 24 -45 13 -13 27 -40 30 -60 4 -20 16 -44 27 -53 11 -10 19
-29 19 -49 0 -31 -2 -33 -35 -33 -39 0 -105 -24 -105 -38 0 -4 -23 -14 -50
-21 -30 -8 -55 -21 -61 -32 -5 -11 -20 -19 -35 -19 -29 0 -84 -26 -84 -40 0
-6 -17 -10 -37 -10 -51 0 -113 -18 -119 -34 -3 -8 -26 -16 -52 -20 -31 -4 -53
-14 -63 -28 -12 -15 -33 -23 -80 -30 -35 -4 -75 -16 -89 -27 -14 -10 -46 -21
-72 -25 -29 -4 -53 -15 -61 -26 -8 -12 -31 -21 -65 -26 -40 -5 -65 -16 -104
-47 l-51 -41 6 -140 c5 -120 9 -150 30 -200 14 -32 31 -64 38 -71 36 -35 511
-53 708 -27 84 11 96 15 125 45 l31 32 5 145 c5 139 6 147 32 180 26 34 28 34
60 21 18 -7 69 -21 113 -30 69 -15 80 -20 85 -41 4 -14 3 -38 -2 -55 -4 -16
-8 -88 -8 -160 0 -112 -3 -136 -20 -168 -11 -21 -25 -59 -31 -85 -10 -47 -22
-63 -97 -131 -30 -26 -42 -30 -125 -36 -121 -9 -975 -1 -1004 9 -13 5 -23 15
-23 22 0 8 -11 19 -24 24 -30 11 -86 68 -86 86 0 7 -10 20 -22 29 l-23 15 -3
690 -3 690 121 0 120 0 0 -188z m7725 -641 c0 -429 -3 -783 -8 -787 -4 -4
-587 -9 -1295 -11 -1174 -4 -1290 -2 -1330 12 l-43 17 3 741 c3 623 6 747 18
775 l14 32 1321 0 1320 0 0 -779z m-20319 537 c16 -14 43 -20 117 -25 l95 -6
-20 -28 c-17 -23 -22 -48 -26 -131 -4 -87 -8 -105 -25 -119 -17 -13 -21 -31
-25 -106 -4 -79 -7 -90 -25 -99 -13 -5 -24 -23 -29 -45 -4 -20 -16 -52 -27
-70 -10 -19 -22 -57 -26 -86 -4 -29 -13 -57 -21 -63 -7 -7 -19 -38 -25 -70 -7
-38 -20 -67 -35 -81 -19 -17 -24 -33 -24 -69 0 -62 -33 -100 -85 -100 -19 0
-35 4 -35 9 0 15 -77 41 -120 41 l-40 0 0 40 c0 26 5 43 14 46 15 6 30 38 41
89 4 17 15 39 24 50 11 12 21 43 24 77 3 35 13 68 26 85 12 16 24 52 28 81 4
41 12 57 29 69 19 12 24 24 24 55 0 21 11 63 24 91 17 35 28 83 34 147 10 91
35 220 47 240 7 12 34 2 61 -22z m1124 20 c2 -83 22 -202 39 -235 11 -21 23
-50 26 -66 3 -15 14 -36 25 -47 16 -16 20 -34 20 -89 0 -56 4 -75 24 -104 17
-24 25 -52 28 -93 l3 -59 -69 -7 c-48 -5 -75 -13 -90 -27 -20 -19 -48 -26 -92
-23 -19 2 -22 10 -28 74 -5 54 -12 78 -28 96 -18 18 -24 41 -29 103 -5 59 -12
87 -27 102 -15 17 -21 42 -25 108 -6 82 -21 139 -39 139 -4 0 -8 17 -8 39 l0
39 66 7 c43 4 72 13 84 25 29 29 120 42 120 18z"/>
<path d="M6553 7999 c-19 -7 -23 -16 -23 -49 0 -41 14 -79 33 -91 5 -4 13 -37
16 -75 4 -39 13 -70 20 -72 7 -2 17 -10 24 -18 39 -47 19 -45 369 -42 326 3
330 3 348 25 9 12 20 40 24 62 3 23 10 41 14 41 17 0 42 61 42 104 0 25 4 46
9 46 20 0 21 34 1 54 -19 20 -32 20 -437 22 -230 1 -428 -2 -440 -7z"/>
<path d="M9334 8472 c-30 -20 -34 -55 -34 -296 0 -287 -10 -266 124 -266 129
0 123 -14 121 273 -2 258 -2 258 -62 284 -34 14 -131 18 -149 5z"/>
<path d="M10376 8267 c-16 -12 -17 -26 -14 -119 3 -97 5 -109 28 -133 23 -25
25 -35 30 -158 5 -128 6 -132 30 -144 14 -7 51 -13 82 -13 61 0 88 16 88 51 0
10 4 19 8 19 17 0 34 57 39 130 3 44 12 89 23 110 31 60 45 244 20 260 -24 15
-313 12 -334 -3z"/>
<path d="M9312 7618 c-9 -9 -12 -83 -12 -273 0 -190 3 -264 12 -273 19 -19
202 -16 222 3 13 13 15 54 12 271 -2 238 -4 258 -21 270 -24 18 -196 19 -213
2z"/>
<path d="M10304 6993 c-28 -37 -29 -42 -29 -150 0 -110 0 -112 31 -150 l31
-38 223 0 222 0 24 28 c23 27 24 35 24 162 0 130 -1 135 -25 159 l-25 25 -224
1 -223 0 -29 -37z"/>
<path d="M9353 6813 c-50 -10 -53 -28 -53 -310 0 -254 1 -262 21 -276 22 -16
67 -9 96 15 9 7 39 18 67 23 63 13 62 6 61 282 l0 213 -25 25 c-21 20 -38 26
-85 29 -33 2 -70 2 -82 -1z"/>
<path d="M10308 6410 l-38 -32 0 -117 c0 -109 2 -119 23 -137 46 -40 61 -42
268 -46 207 -3 235 1 261 37 4 6 8 69 8 142 0 175 2 173 -160 173 -64 0 -164
2 -221 6 l-104 5 -37 -31z"/>
<path d="M13087 7413 c-4 -3 -7 -68 -7 -144 0 -136 0 -139 25 -155 16 -10 41
-15 72 -13 78 4 635 0 668 -6 19 -3 38 2 52 13 20 16 22 26 24 153 2 74 -1
140 -5 147 -5 9 -109 12 -415 12 -224 0 -411 -3 -414 -7z"/>
<path d="M13096 6799 c-24 -35 -23 -258 2 -288 17 -20 25 -20 406 -22 366 -2
390 -1 403 17 9 12 13 53 14 123 2 133 2 132 -24 158 -20 20 -26 22 -61 12
-37 -10 -83 -9 -491 7 -66 3 -145 7 -176 11 -51 5 -58 3 -73 -18z"/>
<path d="M2213 7734 c-18 -9 -33 -19 -34 -23 0 -3 -2 -95 -3 -203 l-3 -197 36
-34 36 -35 437 -6 437 -7 18 28 c16 24 18 52 18 246 0 205 -1 220 -19 233 -16
12 -95 14 -455 14 -379 0 -440 -3 -468 -16z"/>
<path d="M20144 6770 c-12 -4 -25 -17 -29 -27 -4 -10 -7 -223 -6 -473 2 -446
2 -455 23 -472 19 -17 82 -18 1019 -18 990 0 999 0 1019 20 20 20 21 30 18
485 -2 364 -6 467 -16 477 -10 10 -208 13 -1010 15 -548 1 -1006 -2 -1018 -7z"/>
</g>
</svg>
